<?xml version="1.0" encoding="UTF-8"?>
<svg version="1.1" xmlns="http://www.w3.org/2000/svg" width="500" height="500">
<path d="M0 0 C165 0 330 0 500 0 C500 165 500 330 500 500 C335 500 170 500 0 500 C0 335 0 170 0 0 Z " fill="#FEFEFE" transform="translate(0,0)"/>
<path d="M0 0 C-3.68254687 4.54978989 -7.65052367 8.67196564 -11.87109375 12.72265625 C-12.94995898 13.76618384 -14.02873351 14.80980521 -15.10742188 15.85351562 C-16.78047396 17.47075815 -18.45795747 19.08178581 -20.15112305 20.67797852 C-21.8032392 22.23937908 -23.43213492 23.82210344 -25.05859375 25.41015625 C-25.56990341 25.88219986 -26.08121307 26.35424347 -26.60801697 26.84059143 C-28.99387425 29.20701656 -29.99607302 30.45139176 -30.02050781 33.86499023 C-28.79736166 37.62250693 -27.29717453 41.18230297 -25.61328125 44.75 C-25.27378952 45.48516846 -24.93429779 46.22033691 -24.58451843 46.9777832 C-23.50065594 49.3217523 -22.4070714 51.66101522 -21.3125 54 C-19.88890395 57.06110198 -18.46931999 60.12405164 -17.05078125 63.1875 C-16.53380173 64.3014917 -16.53380173 64.3014917 -16.00637817 65.43798828 C-12.86442427 72.23390437 -9.8986763 79.09700251 -7 86 C-9.59405268 74.55403106 -12.50456716 63.22698133 -15.62524414 51.91259766 C-15.91778076 50.84444824 -16.21031738 49.77629883 -16.51171875 48.67578125 C-16.90556763 47.2513269 -16.90556763 47.2513269 -17.30737305 45.7980957 C-17.53593994 44.87472412 -17.76450684 43.95135254 -18 43 C-18.2587793 41.95875977 -18.51755859 40.91751953 -18.78417969 39.84472656 C-19 37 -19 37 -17.80688477 35.23999023 C-16.8834729 34.53144897 -16.8834729 34.53144897 -15.94140625 33.80859375 C-15.25336914 33.26299805 -14.56533203 32.71740234 -13.85644531 32.15527344 C-13.09944336 31.5884082 -12.34244141 31.02154297 -11.5625 30.4375 C-9.98558938 29.20193484 -8.40876854 27.96625509 -6.83203125 26.73046875 C-6.02459473 26.10962402 -5.2171582 25.4887793 -4.38525391 24.84912109 C-1.45800023 22.57982536 1.40389807 20.23813345 4.26245117 17.88330078 C6.22955675 16.26679958 8.21010743 14.66841732 10.1953125 13.07421875 C12.71919359 11.04676516 15.20824665 8.98549504 17.6796875 6.89453125 C18.82760934 5.94989385 19.97602094 5.0058512 21.125 4.0625 C22.11757812 3.22847656 23.11015625 2.39445312 24.1328125 1.53515625 C27 0 27 0 30.0546875 0.87109375 C31.51261719 1.42990234 31.51261719 1.42990234 33 2 C35.81571431 1.24267038 35.81571431 1.24267038 38 0 C39.27230469 1.10794922 39.27230469 1.10794922 40.5703125 2.23828125 C46.54985051 7.41922659 52.56906974 12.51416022 58.8125 17.375 C59.36953613 17.8169873 59.92657227 18.25897461 60.50048828 18.71435547 C63.84911022 21.36483819 67.25202412 23.90069806 70.73046875 26.37890625 C82.37524165 34.90197428 82.37524165 34.90197428 83.83984375 39.8203125 C83.35045017 43.1557911 82.27000595 45.87195794 81 49 C80.24800324 51.50365706 79.56024303 54.02101565 78.87133789 56.54272461 C78.15857822 59.12819795 77.40054153 61.69602724 76.6328125 64.265625 C74.52923339 71.45130233 72.78183689 78.72937773 71 86 C73.31360612 80.98808618 75.6246798 75.97501466 77.93359375 70.9609375 C78.71645764 69.26173784 79.49996675 67.56283528 80.28417969 65.86425781 C84.58345475 56.55099443 88.82610816 47.22753474 92.80419922 37.77197266 C93.79829784 35.46756357 94.84737141 33.22814707 96 31 C95.46987305 30.79439453 94.93974609 30.58878906 94.39355469 30.37695312 C91.00179316 28.42575616 88.43949413 25.72455618 85.703125 22.96875 C85.10949158 22.37703003 84.51585815 21.78531006 83.90423584 21.17565918 C82.65456282 19.92734419 81.40740008 18.67651177 80.16259766 17.42333984 C78.24992048 15.49992003 76.32676881 13.58743901 74.40234375 11.67578125 C73.18946202 10.46157861 71.97720048 9.24675607 70.765625 8.03125 C69.89855927 7.17025696 69.89855927 7.17025696 69.01397705 6.29187012 C65 2.22993434 65 2.22993434 65 0 C75.72284184 -0.35666483 85.48318441 0.39423414 96 2.8125 C96.6721051 2.96316925 97.34421021 3.1138385 98.03668213 3.26907349 C128.2059078 10.07771138 156.70243877 21.53564506 183.24291992 37.37451172 C185.131743 38.4881028 187.04826611 39.55563504 188.9855957 40.58251953 C195.22360272 44.08352122 198.30708085 46.90731669 200.50683594 53.7734375 C200.77270508 54.75570312 201.03857422 55.73796875 201.3125 56.75 C201.62606445 57.79929688 201.93962891 58.84859375 202.26269531 59.9296875 C203.23397986 63.2733568 204.12807662 66.62914712 205 70 C205.28214355 71.06927734 205.56428711 72.13855469 205.85498047 73.24023438 C225.14190702 148.02395667 214.88330746 226.71860118 175.55371094 293.45410156 C169.31938819 303.81485553 162.61448321 313.60796359 155 323 C153.89398438 324.39412109 153.89398438 324.39412109 152.765625 325.81640625 C143.87964466 336.89237111 134.1182917 347.05784877 124 357 C124.92941406 357.04898437 125.85882813 357.09796875 126.81640625 357.1484375 C143.13540511 358.13540511 143.13540511 358.13540511 146 361 C145.8974359 381.1025641 145.8974359 381.1025641 140 387 C137.01904297 387.31884766 137.01904297 387.31884766 133.2421875 387.4140625 C132.24761032 387.44311172 132.24761032 387.44311172 131.23294067 387.4727478 C129.11375823 387.53255954 126.9945215 387.57893388 124.875 387.625 C123.43877831 387.66317845 122.00257955 387.70223011 120.56640625 387.7421875 C117.04448064 387.83826125 113.52238392 387.92228642 110 388 C110 388.66 110 389.32 110 390 C110.70084717 389.98952637 111.40169434 389.97905273 112.1237793 389.96826172 C115.31164945 389.92658332 118.49946215 389.90063615 121.6875 389.875 C122.79029297 389.85824219 123.89308594 389.84148437 125.02929688 389.82421875 C126.09599609 389.81777344 127.16269531 389.81132812 128.26171875 389.8046875 C129.24100342 389.79421387 130.22028809 389.78374023 131.22924805 389.77294922 C134.4402141 390.03607358 137.64376005 390.64376005 140 393 C140.0979057 394.49738124 140.12974864 395.99942892 140.125 397.5 C140.12757813 398.3146875 140.13015625 399.129375 140.1328125 399.96875 C140 402 140 402 139 403 C135.93257153 403.11362968 132.88851855 403.16419232 129.8203125 403.16796875 C128.43475662 403.17296135 128.43475662 403.17296135 127.02120972 403.17805481 C125.06248474 403.18312858 123.10375108 403.185463 121.14501953 403.18530273 C118.14471179 403.18748566 115.14477367 403.20562674 112.14453125 403.22460938 C110.24479293 403.22754388 108.34505285 403.22952829 106.4453125 403.23046875 C105.54523468 403.23765427 104.64515686 403.24483978 103.71780396 403.25224304 C102.88038666 403.24916641 102.04296936 403.24608978 101.18017578 403.24291992 C100.07550461 403.24505745 100.07550461 403.24505745 98.94851685 403.24723816 C97 403 97 403 94 401 C92.24609923 393.14183675 95.13041309 383.83405802 96.61523438 376.06689453 C97.34766898 372.13238222 97.95037065 368.17614506 98.5703125 364.22265625 C99 362 99 362 100 360 C99.34 360 98.68 360 98 360 C97.88724731 360.83192871 97.88724731 360.83192871 97.7722168 361.68066406 C97.42293204 364.20565225 97.05541719 366.72766228 96.6875 369.25 C96.56955078 370.12269531 96.45160156 370.99539063 96.33007812 371.89453125 C95.63072344 376.59276013 94.90751339 379.21793114 92 383 C91.14110627 386.57326379 90.77586166 390.24135118 90.359375 393.88867188 C89.55970364 399.48149537 89.55970364 399.48149537 86.82421875 402.015625 C83.44510876 403.19340608 80.75959119 403.29574519 77.1875 403.1875 C76.02605469 403.16042969 74.86460937 403.13335937 73.66796875 403.10546875 C72.34732422 403.05326172 72.34732422 403.05326172 71 403 C71.46639893 402.02603271 71.93279785 401.05206543 72.41333008 400.04858398 C74.21134963 395.83983407 74.83796577 391.74197334 75.38671875 387.22265625 C75.49345413 386.41130722 75.60018951 385.59995819 75.7101593 384.76402283 C76.04551677 382.1979806 76.36672321 379.63040138 76.6875 377.0625 C76.91377708 375.31172767 77.14098154 373.56107494 77.36914062 371.81054688 C77.92349133 367.54167232 78.46516721 363.27136194 79 359 C78.34 359 77.68 359 77 359 C76.97421875 359.72058594 76.9484375 360.44117188 76.921875 361.18359375 C76.47840202 369.57934356 75.39879093 377.81847314 74.125 386.125 C73.96354492 387.2277124 73.80208984 388.3304248 73.63574219 389.46655273 C73.46977539 390.51141846 73.30380859 391.55628418 73.1328125 392.6328125 C72.98730957 393.57012207 72.84180664 394.50743164 72.69189453 395.47314453 C71.92173097 398.2858449 70.98692541 399.87745238 69 402 C65.71480525 403.09506492 63.26336585 403.09960608 59.8125 403.0625 C58.72582031 403.05347656 57.63914062 403.04445313 56.51953125 403.03515625 C55.68808594 403.02355469 54.85664063 403.01195312 54 403 C54.47571942 398.77043814 54.95617686 394.54142753 55.4375 390.3125 C55.63956055 388.51522461 55.63956055 388.51522461 55.84570312 386.68164062 C55.97783203 385.52470703 56.10996094 384.36777344 56.24609375 383.17578125 C56.36654053 382.11270752 56.4869873 381.04963379 56.61108398 379.9543457 C56.96237622 377.28580371 57.47214066 374.63929671 58 372 C52.39 372 46.78 372 41 372 C40.896875 373.65 40.79375 375.3 40.6875 377 C40.24731291 382.26966834 39.50710825 387.42700616 38.5625 392.625 C38.44028076 393.32367188 38.31806152 394.02234375 38.19213867 394.7421875 C37.24251475 399.75748525 37.24251475 399.75748525 35 402 C32.05049953 403.00207388 29.34837394 403.10806432 26.25 403.0625 C25.45078125 403.05347656 24.6515625 403.04445313 23.828125 403.03515625 C22.92320312 403.01775391 22.92320312 403.01775391 22 403 C23.07399065 390.30163994 24.5598189 377.78513196 26.64306641 365.21484375 C27.21079702 361.69196265 27.70935029 358.16102257 28.1875 354.625 C28.34605469 353.46226562 28.50460938 352.29953125 28.66796875 351.1015625 C28.77753906 350.07804687 28.88710937 349.05453125 29 348 C29.11601562 347.154375 29.23203125 346.30875 29.3515625 345.4375 C28.83095084 341.8279258 26.65541292 339.87182571 24.1875 337.375 C23.69773682 336.86155029 23.20797363 336.34810059 22.70336914 335.8190918 C21.14912292 334.19893939 19.57661057 332.59837359 18 331 C17.48244141 330.46874512 16.96488281 329.93749023 16.43164062 329.39013672 C11.21712728 323.52187977 11.21712728 323.52187977 5 319 C5 331.87 5 344.74 5 358 C10.28 358 15.56 358 21 358 C21.66 358.33 22.32 358.66 23 359 C22.91253716 360.43861294 22.80434652 361.87597508 22.6875 363.3125 C22.60048828 364.51326172 22.60048828 364.51326172 22.51171875 365.73828125 C21.90954917 368.39977885 21.12223709 369.33141064 19 371 C14.48791079 372.45979357 9.69248542 372.09200952 5 372 C5 372.66 5 373.32 5 374 C5.59167969 373.97679687 6.18335938 373.95359375 6.79296875 373.9296875 C11.32049003 373.82628571 14.89737126 373.82047848 19 376 C20 377 20 377 20.1875 380.8125 C20.112275 387.51827151 19.92500381 396.3204415 16 402 C11.88261001 403.34436211 7.68862234 403.16201495 3.40234375 403.16796875 C2.57166885 403.17129715 1.74099396 403.17462555 0.88514709 403.17805481 C-0.86733447 403.18310851 -2.61982561 403.18546362 -4.37231445 403.18530273 C-7.05631226 403.18749495 -9.73990268 403.20568253 -12.42382812 403.22460938 C-14.12760276 403.22754245 -15.83137935 403.22952782 -17.53515625 403.23046875 C-18.33832779 403.23765427 -19.14149933 403.24483978 -19.9690094 403.25224304 C-23.8397638 403.23631466 -25.70384245 403.19743837 -29 401 C-29.26518132 396.82339427 -29.31886422 393.95659266 -28 390 C-25.03 389.67 -22.06 389.34 -19 389 C-20.7015625 388.2884375 -20.7015625 388.2884375 -22.4375 387.5625 C-26 386 -26 386 -27 385 C-27.61648313 377.29396083 -26.51376965 367.0275393 -23 360 C-23.66 360 -24.32 360 -25 360 C-25.08040527 360.56509277 -25.16081055 361.13018555 -25.24365234 361.71240234 C-25.61218188 364.26792602 -25.99342652 366.82139284 -26.375 369.375 C-26.56449219 370.70917969 -26.56449219 370.70917969 -26.7578125 372.0703125 C-26.88671875 372.92109375 -27.015625 373.771875 -27.1484375 374.6484375 C-27.26364746 375.43395996 -27.37885742 376.21948242 -27.49755859 377.02880859 C-28 379 -28 379 -30 381 C-30.66 380.67 -31.32 380.34 -32 380 C-32.03738281 380.9178125 -32.07476562 381.835625 -32.11328125 382.78125 C-32.48652046 389.74838199 -32.90954241 395.69546653 -36 402 C-39.06533164 403.53266582 -42.26754272 403.10276471 -45.625 403.0625 C-46.33140625 403.05798828 -47.0378125 403.05347656 -47.765625 403.04882812 C-49.51045275 403.03703875 -51.255237 403.01910324 -53 403 C-52.53811279 402.52852539 -52.07622559 402.05705078 -51.6003418 401.57128906 C-49.28451115 397.85041517 -48.97674365 394.15613241 -48.39453125 389.859375 C-48.26559982 388.97719299 -48.1366684 388.09501099 -48.00382996 387.18609619 C-47.59565002 384.375528 -47.2038818 381.56295156 -46.8125 378.75 C-46.5381891 376.84099037 -46.2628108 374.9321338 -45.98632812 373.0234375 C-45.31183223 368.35064229 -44.6520428 363.67597896 -44 359 C-44.66 359 -45.32 359 -46 359 C-46 361.97 -46 364.94 -46 368 C-47.32 367.67 -48.64 367.34 -50 367 C-50.66 368.32 -51.32 369.64 -52 371 C-57.94 371.33 -63.88 371.66 -70 372 C-70 374.97 -70 377.94 -70 381 C-70.66 383.97 -71.32 386.94 -72 390 C-65.4 390 -58.8 390 -52 390 C-53.15846995 399.26775956 -53.15846995 399.26775956 -56 402 C-61.31293126 403.77097709 -67.00256252 403.18464142 -72.5625 403.1875 C-73.81998047 403.19974609 -75.07746094 403.21199219 -76.37304688 403.22460938 C-77.57123047 403.22654297 -78.76941406 403.22847656 -80.00390625 403.23046875 C-81.10549072 403.23457764 -82.2070752 403.23868652 -83.34204102 403.24291992 C-86 403 -86 403 -88 401 C-88.33583113 391.00502584 -85.86282204 380.78274466 -84 371 C-87.96 371 -91.92 371 -96 371 C-95.51171875 363.3828125 -95.51171875 363.3828125 -95 361 C-91.68629 358.79086 -90.6553979 358.77518447 -86.8125 358.875 C-85.91144531 358.89304687 -85.01039063 358.91109375 -84.08203125 358.9296875 C-83.05142578 358.96449219 -83.05142578 358.96449219 -82 359 C-81.77828448 356.39634072 -81.57215141 353.79303507 -81.375 351.1875 C-81.31054688 350.44951172 -81.24609375 349.71152344 -81.1796875 348.95117188 C-80.82029739 344.19441504 -80.82029739 344.19441504 -83 340 C-81.35 339.67 -79.7 339.34 -78 339 C-78.71542969 338.19820313 -79.43085938 337.39640625 -80.16796875 336.5703125 C-93.65995953 321.25891943 -104.96884468 304.75808432 -115 287 C-115.47711426 286.15566406 -115.95422852 285.31132812 -116.44580078 284.44140625 C-132.04485276 256.50661333 -142.71613961 225.54444174 -148 194 C-148.16371094 193.03175293 -148.32742187 192.06350586 -148.49609375 191.06591797 C-153.41022761 160.44903644 -152.54344204 128.44823711 -147 98 C-146.81276367 96.96649414 -146.62552734 95.93298828 -146.43261719 94.86816406 C-143.70542544 80.31843122 -139.86599103 65.98290696 -135 52 C-134.64164063 50.93910156 -134.28328125 49.87820312 -133.9140625 48.78515625 C-115.58683935 22.11717644 -59.75923401 8.70545545 -30.07226562 2.44042969 C-28.32940963 2.07001119 -26.59339806 1.66759407 -24.859375 1.2578125 C-16.65798733 -0.53470636 -8.34765364 -0.17615213 0 0 Z " fill="#CA6CE5" transform="translate(218,35)"/>
<path d="M0 0 C1.40942383 1.58744812 1.40942383 1.58744812 2.70703125 3.6706543 C3.20323975 4.45205276 3.69944824 5.23345123 4.21069336 6.03852844 C4.73928955 6.89593124 5.26788574 7.75333405 5.8125 8.63671875 C6.97565554 10.47502079 8.13975449 12.31272617 9.3046875 14.14990234 C9.91022461 15.11216736 10.51576172 16.07443237 11.13964844 17.06585693 C14.17953147 21.86035487 17.30952537 26.59472528 20.4375 31.33203125 C21.69411395 33.24016619 22.95062401 35.14836957 24.20703125 37.05664062 C24.8304541 38.0025708 25.45387695 38.94850098 26.09619141 39.9230957 C28.02779941 42.85469107 29.95727346 45.78768404 31.88671875 48.72070312 C33.13268367 50.61206404 34.3787727 52.5033432 35.625 54.39453125 C36.19275146 55.25810745 36.76050293 56.12168365 37.34545898 57.01142883 C39.79425416 60.72299283 42.26574781 64.39136202 44.8984375 67.9753418 C47 71 47 71 47 73 C45.234375 74.33984375 45.234375 74.33984375 42.75 75.9375 C31.08457902 83.93382524 22.23016509 93.62660506 14 105 C13.02933594 106.32064453 13.02933594 106.32064453 12.0390625 107.66796875 C1.85234019 122.53320832 -4.406463 141.12385582 -6 159 C-6.06775635 159.73895508 -6.1355127 160.47791016 -6.20532227 161.23925781 C-7.08377876 172.54181757 -5.70988272 180.16160326 -0.1640625 189.99609375 C8.7821245 205.95235266 12.06798463 225.95888586 12.16699219 243.99780273 C12.24666272 257.1178324 14.16263468 265.48159239 22 276 C22.79474473 277.13456883 23.58649541 278.2712418 24.375 279.41015625 C26.19867058 281.98609094 28.0630283 284.50885383 30 287 C29.67 287.66 29.34 288.32 29 289 C21.4678794 281.69728408 14.48899434 274.26481207 8 266 C7.13041001 264.93106658 6.25925032 263.86340867 5.38671875 262.796875 C-1.78018047 253.96506766 -8.06584311 244.69854604 -14 235 C-14.39429199 234.35869141 -14.78858398 233.71738281 -15.19482422 233.05664062 C-31.49042815 206.23317317 -41.56695057 175.77916805 -47 145 C-47.23332031 143.72769531 -47.46664062 142.45539063 -47.70703125 141.14453125 C-53.88307134 104.66590597 -50.15685795 66.54855984 -41 31 C-40.70077637 29.82872559 -40.40155273 28.65745117 -40.09326172 27.45068359 C-39.77244629 26.2952002 -39.45163086 25.1397168 -39.12109375 23.94921875 C-38.83548584 22.90467529 -38.54987793 21.86013184 -38.25561523 20.78393555 C-35.99945516 15.78160358 -31.58568195 13.61324795 -26.91015625 11.08984375 C-25.96076172 10.57486328 -25.01136719 10.05988281 -24.03320312 9.52929688 C-22.56270508 8.74135742 -22.56270508 8.74135742 -21.0625 7.9375 C-19.59780273 7.14375977 -19.59780273 7.14375977 -18.10351562 6.33398438 C-16.22652424 5.31977276 -14.34597662 4.31210669 -12.46142578 3.31201172 C-10.47991866 2.25581064 -8.51618466 1.16630126 -6.55859375 0.06640625 C-3.64375613 -1.14848027 -2.87077729 -1.13738853 0 0 Z " fill="#FEFDFE" transform="translate(152,81)"/>
<path d="M0 0 C3.8588702 0.6020532 6.82735575 1.76010444 10.2734375 3.58203125 C11.2634375 4.10216797 12.2534375 4.62230469 13.2734375 5.15820312 C14.80871094 5.97708008 14.80871094 5.97708008 16.375 6.8125 C17.89867187 7.61397461 17.89867187 7.61397461 19.453125 8.43164062 C21.42476185 9.47251125 23.39223359 10.52131868 25.35498047 11.57885742 C26.96420053 12.44347529 28.58125773 13.29396574 30.21142578 14.1184082 C32.86625269 15.50504737 34.73306403 16.58903925 36.3828125 19.12890625 C36.62773437 19.93199219 36.87265625 20.73507813 37.125 21.5625 C37.57552734 23.01462891 37.57552734 23.01462891 38.03515625 24.49609375 C38.35355469 25.65238281 38.67195313 26.80867188 39 28 C39.19835449 28.69109863 39.39670898 29.38219727 39.60107422 30.09423828 C42.7991904 41.26706657 45.41761849 52.48266624 47 64 C47.15662109 65.13888672 47.15662109 65.13888672 47.31640625 66.30078125 C50.44576851 90.50382351 50.91357516 116.88284139 47 141 C46.86529297 141.91136719 46.73058594 142.82273438 46.59179688 143.76171875 C37.97470414 200.83596934 8.99100348 251.91990771 -32 292 C-32 288.33348156 -31.18001552 287.63948557 -28.8984375 284.859375 C-27.9388916 283.65958008 -27.9388916 283.65958008 -26.95996094 282.43554688 C-26.31317383 281.63181641 -25.66638672 280.82808594 -25 280 C-14.21647114 266.32546137 -12.00582826 255.58724799 -12.1015625 238.3359375 C-12.12614086 219.63180676 -7.02761391 198.38097582 3.22265625 182.51171875 C5.45972444 178.09166534 5.53617524 174.80588209 5.375 169.9375 C5.35775879 169.09968994 5.34051758 168.26187988 5.32275391 167.39868164 C4.64668417 143.65683669 -3.43034434 120.83785875 -18 102 C-18.62648438 101.17113281 -19.25296875 100.34226562 -19.8984375 99.48828125 C-27.77061367 89.32912899 -36.60419111 81.44065509 -47 74 C-46.38752383 71.04092348 -45.47191018 68.85740799 -43.859375 66.30859375 C-43.37960205 65.54925537 -42.8998291 64.78991699 -42.40551758 64.00756836 C-41.85919678 63.1594458 -41.31287598 62.31132324 -40.75 61.4375 C-40.16951904 60.52943604 -39.58903809 59.62137207 -38.9909668 58.68579102 C-30.49815392 45.52198302 -21.65786476 32.58332882 -12.86816406 19.61694336 C-12.2417955 18.69228271 -11.61542694 17.76762207 -10.97007751 16.81494141 C-9.78251789 15.06253185 -8.5937494 13.31094069 -7.40357971 11.56030273 C-4.82972635 7.76305296 -2.2978032 3.97377691 0 0 Z " fill="#FEFDFE" transform="translate(349,80)"/>
<path d="M0 0 C-2.38304607 2.38304607 -3.61688687 2.53007698 -6.875 3.25 C-29.67068179 8.73181872 -51.32200631 16.94094814 -72 28 C-72.75861328 28.40395996 -73.51722656 28.80791992 -74.29882812 29.22412109 C-76.70558773 30.51303764 -79.10430674 31.8156399 -81.5 33.125 C-82.22993164 33.52066162 -82.95986328 33.91632324 -83.71191406 34.32397461 C-93.92408761 39.57092808 -93.92408761 39.57092808 -100.125 48.5625 C-100.41761719 49.51898438 -100.71023437 50.47546875 -101.01171875 51.4609375 C-101.33785156 52.62882812 -101.66398437 53.79671875 -102 55 C-102.46244208 56.51375661 -102.92749275 58.0267177 -103.39453125 59.5390625 C-118.82914276 110.42234279 -121.28431584 165.50273748 -107 217 C-106.72704102 217.99837891 -106.45408203 218.99675781 -106.17285156 220.02539062 C-95.6148631 257.98748394 -78.16576537 294.201876 -52.4765625 324.26318359 C-50.1712834 326.97478339 -47.93300466 329.73873098 -45.6875 332.5 C-44.45862667 334.00024033 -43.22958903 335.5003462 -42 337 C-42.99 337.33 -43.98 337.66 -45 338 C-44.34 338.66 -43.68 339.32 -43 340 C-43.01747927 342.75589777 -43.13863271 345.38786676 -43.375 348.125 C-43.46007812 349.25615234 -43.46007812 349.25615234 -43.546875 350.41015625 C-43.6884465 352.27418096 -43.84299959 354.13721137 -44 356 C-43.31035156 355.9278125 -42.62070313 355.855625 -41.91015625 355.78125 C-35.90411341 355.18806058 -30.0343 354.90107705 -24 355 C-24.44994757 356.79379098 -24.91024143 358.58498928 -25.375 360.375 C-25.75785156 361.87160156 -25.75785156 361.87160156 -26.1484375 363.3984375 C-27 366 -27 366 -29 368 C-31.73434962 368.3063859 -34.38279821 368.5113336 -37.125 368.625 C-37.87910156 368.66367187 -38.63320312 368.70234375 -39.41015625 368.7421875 C-41.27303184 368.83651031 -43.13648255 368.91934662 -45 369 C-44.95875 370.299375 -44.9175 371.59875 -44.875 372.9375 C-44.71147548 378.08852237 -45.79200728 381.56403276 -47 387 C-40.4 387 -33.8 387 -27 387 C-28.15846995 396.26775956 -28.15846995 396.26775956 -31 399 C-36.31293126 400.77097709 -42.00256252 400.18464142 -47.5625 400.1875 C-48.81998047 400.19974609 -50.07746094 400.21199219 -51.37304688 400.22460938 C-52.57123047 400.22654297 -53.76941406 400.22847656 -55.00390625 400.23046875 C-56.10549072 400.23457764 -57.2070752 400.23868652 -58.34204102 400.24291992 C-61 400 -61 400 -63 398 C-63.33583113 388.00502584 -60.86282204 377.78274466 -59 368 C-62.96 368 -66.92 368 -71 368 C-70.51171875 360.3828125 -70.51171875 360.3828125 -70 358 C-66.68629 355.79086 -65.6553979 355.77518447 -61.8125 355.875 C-60.91144531 355.89304687 -60.01039063 355.91109375 -59.08203125 355.9296875 C-58.05142578 355.96449219 -58.05142578 355.96449219 -57 356 C-56.77828448 353.39634072 -56.57215141 350.79303507 -56.375 348.1875 C-56.31054688 347.44951172 -56.24609375 346.71152344 -56.1796875 345.95117188 C-55.82029739 341.19441504 -55.82029739 341.19441504 -58 337 C-56.35 336.67 -54.7 336.34 -53 336 C-53.71542969 335.19820313 -54.43085938 334.39640625 -55.16796875 333.5703125 C-68.65995953 318.25891943 -79.96884468 301.75808432 -90 284 C-90.47711426 283.15566406 -90.95422852 282.31132812 -91.44580078 281.44140625 C-107.04485276 253.50661333 -117.71613961 222.54444174 -123 191 C-123.16371094 190.03175293 -123.32742187 189.06350586 -123.49609375 188.06591797 C-128.41022761 157.44903644 -127.54344204 125.44823711 -122 95 C-121.81276367 93.96649414 -121.62552734 92.93298828 -121.43261719 91.86816406 C-118.70542544 77.31843122 -114.86599103 62.98290696 -110 49 C-109.64164063 47.93910156 -109.28328125 46.87820312 -108.9140625 45.78515625 C-91.46828093 20.39976389 -38.73904867 7.10626127 -10.453125 0.55859375 C-6.90793467 -0.01489292 -3.58485203 -0.10570718 0 0 Z " fill="#880BAD" transform="translate(193,38)"/>
<path d="M0 0 C3.43368925 0.58650675 6.33418704 1.45417668 9.484375 2.93359375 C10.3292749 3.3291748 11.1741748 3.72475586 12.04467773 4.13232422 C15.79227287 5.94034187 19.52074618 7.78478934 23.24072266 9.64892578 C25.7857333 10.89508477 28.35478333 12.0452029 30.94921875 13.18359375 C37.1942988 16.11116186 42.38648707 18.82548298 45.2421875 25.375 C47.01880902 30.47896235 48.01950182 35.69692785 49 41 C49.36568653 42.66945254 49.73796072 44.3374773 50.1171875 46.00390625 C51.22078981 50.97952013 52.12075711 55.98060683 53 61 C53.20769516 62.17860847 53.20769516 62.17860847 53.41958618 63.38102722 C55.9012953 77.86977028 56.52269787 92.06830799 56.4375 106.75 C56.43343643 108.39710464 56.43343643 108.39710464 56.42929077 110.07748413 C56.36934735 126.10163045 55.6459623 141.34469666 52 157 C51.64224843 158.75317854 51.28809991 160.50709604 50.9375 162.26171875 C40.40308095 212.70691187 9.669779 271.53120656 -33.25 302.25 C-34.61125 303.11625 -34.61125 303.11625 -36 304 C-36 302.35 -36 300.7 -36 299 C-36.66 299 -37.32 299 -38 299 C-38.09087891 299.99580078 -38.09087891 299.99580078 -38.18359375 301.01171875 C-39.01581722 309.78207381 -39.01581722 309.78207381 -40 314 C-40.63808594 314.04898437 -41.27617187 314.09796875 -41.93359375 314.1484375 C-43.17302734 314.26058594 -43.17302734 314.26058594 -44.4375 314.375 C-45.26121094 314.44460938 -46.08492188 314.51421875 -46.93359375 314.5859375 C-47.61550781 314.72257812 -48.29742187 314.85921875 -49 315 C-49.33 315.66 -49.66 316.32 -50 317 C-47.03 317 -44.06 317 -41 317 C-40.69088265 324.58590692 -41.70540867 331.74712964 -42.97143555 339.22167969 C-43.31381847 341.25784097 -43.63692532 343.29647467 -43.95898438 345.3359375 C-44.17490234 346.63273437 -44.39082031 347.92953125 -44.61328125 349.265625 C-44.80704346 350.43899414 -45.00080566 351.61236328 -45.20043945 352.82128906 C-46.02154067 356.08563648 -46.96072616 358.32685599 -49 361 C-52.13671875 361.48828125 -52.13671875 361.48828125 -55.6875 361.3125 C-57.45673828 361.24482422 -57.45673828 361.24482422 -59.26171875 361.17578125 C-60.16535156 361.11777344 -61.06898438 361.05976563 -62 361 C-61.55011719 360.12988281 -61.10023438 359.25976562 -60.63671875 358.36328125 C-58.16806216 352.58856957 -57.64314048 346.36397453 -56.8125 340.1875 C-56.63525391 338.96740234 -56.45800781 337.74730469 -56.27539062 336.49023438 C-55.40306781 330.22230867 -54.80936046 324.21249918 -55.1315918 317.8840332 C-55 316 -55 316 -53 314 C-52.40959797 310.9605229 -52.04460077 307.91947994 -51.66015625 304.84765625 C-50.93481302 301.71880883 -50.49521828 300.91324018 -48 299 C-45.60400391 298.54858398 -45.60400391 298.54858398 -42.8515625 298.30859375 C-36.10066313 297.22342944 -32.86243602 293.99598113 -28.375 289.0625 C-27.6420874 288.29196289 -26.9091748 287.52142578 -26.15405273 286.72753906 C-20.80366581 281.04598584 -15.7444095 275.19789911 -11 269 C-10.21753906 268.02289063 -9.43507813 267.04578125 -8.62890625 266.0390625 C12.81571254 239.10792501 26.87732519 208.74195299 37 176 C37.22026855 175.29182129 37.44053711 174.58364258 37.66748047 173.85400391 C40.12186487 165.80735124 41.70870666 157.64625085 43.1875 149.375 C43.35475586 148.44486084 43.52201172 147.51472168 43.69433594 146.55639648 C45.87110886 133.76617247 46.23982767 120.94507015 46.25 108 C46.25067474 107.21953308 46.25134949 106.43906616 46.25204468 105.63494873 C46.21439069 77.92513456 42.68325792 51.26365258 33.91796875 24.921875 C33 22 33 22 33 20 C32.236875 19.79246094 31.47375 19.58492187 30.6875 19.37109375 C25.50307724 17.44341113 20.82354472 14.75255378 16 12.0625 C14.0630106 10.98996276 12.12552433 9.91832228 10.1875 8.84765625 C9.28773438 8.35023926 8.38796875 7.85282227 7.4609375 7.34033203 C4.67164581 5.82116423 1.85765623 4.38538402 -1 3 C-0.67 2.01 -0.34 1.02 0 0 Z " fill="#880BAD" transform="translate(351,77)"/>
<path d="M0 0 C1.34059143 1.60897827 1.34059143 1.60897827 2.71704102 3.72412109 C3.50133987 4.91598526 3.50133987 4.91598526 4.30148315 6.13192749 C4.86328278 7.00362579 5.4250824 7.8753241 6.00390625 8.7734375 C6.59535431 9.67663727 7.18680237 10.57983704 7.7961731 11.51040649 C9.72579299 14.46044239 11.64411897 17.41764598 13.5625 20.375 C14.87843972 22.39119535 16.19525474 24.40681967 17.51293945 26.421875 C19.48630219 29.43982482 21.459102 32.45812297 23.42881775 35.47845459 C29.50744753 44.79706225 35.68166372 54.04950987 41.89477539 63.27880859 C42.5521167 64.25930176 43.20945801 65.23979492 43.88671875 66.25 C44.72529419 67.49523437 44.72529419 67.49523437 45.58081055 68.765625 C46.87069078 70.79641528 47.97235817 72.82696896 49 75 C48.154375 75.71285156 47.30875 76.42570312 46.4375 77.16015625 C44.08298463 79.14607226 41.73363193 81.13792041 39.38671875 83.1328125 C37.50691769 84.72989396 35.61989639 86.30952219 33.70703125 87.8671875 C12.11764597 105.76189447 -1.38411685 135.47239245 -4 163 C-4.06799805 163.68078613 -4.13599609 164.36157227 -4.20605469 165.06298828 C-5.26217894 177.09047437 -2.90653878 184.7369251 2.99121094 195.109375 C10.72705933 209.6075381 14.00163948 227.72803446 14.0625 244.0234375 C14.14823169 257.40161524 14.70229581 266.08196818 23 277 C23.81873767 278.18320798 24.63108708 279.37085798 25.4375 280.5625 C33.63807659 292.55229742 43.10248194 303.39948066 53 314 C52.01 314.33 51.02 314.66 50 315 C47.72060873 313.49031191 45.66925606 311.97306753 43.5625 310.25 C42.41799159 309.33851299 41.27346087 308.42705399 40.12890625 307.515625 C39.59152832 307.07669922 39.05415039 306.63777344 38.50048828 306.18554688 C36.88990581 304.87692966 36.88990581 304.87692966 34.58984375 303.421875 C34.06519531 302.95265625 33.54054687 302.4834375 33 302 C33 300.68 33 299.36 33 298 C32.34 298 31.68 298 31 298 C30.81824219 299.49853516 30.81824219 299.49853516 30.6328125 301.02734375 C30.46523437 302.31769531 30.29765625 303.60804688 30.125 304.9375 C29.88136719 306.86916016 29.88136719 306.86916016 29.6328125 308.83984375 C29.42398438 309.88269531 29.21515625 310.92554688 29 312 C26.35541621 313.32229189 24.32238699 313.09677194 21.375 313.0625 C20.37210938 313.05347656 19.36921875 313.04445313 18.3359375 313.03515625 C17.17964844 313.01775391 17.17964844 313.01775391 16 313 C16.11487748 311.41590006 16.24234508 309.83271037 16.375 308.25 C16.44460937 307.36828125 16.51421875 306.4865625 16.5859375 305.578125 C17.01473822 302.90823375 17.42728779 301.20179709 19 299 C21.1640625 298.171875 21.1640625 298.171875 23.625 297.75 C24.85089844 297.52570313 24.85089844 297.52570313 26.1015625 297.296875 C26.72804687 297.19890625 27.35453125 297.1009375 28 297 C27.45472656 296.36835938 26.90945312 295.73671875 26.34765625 295.0859375 C20.66162692 288.34045997 15.64000172 281.40465147 11.10913086 273.83032227 C10.3215396 272.53061466 9.49494937 271.25418949 8.64282227 269.99584961 C4.59995236 263.62572411 4.37379065 258.23159214 4.4375 250.8125 C4.10497108 230.32058707 0.92714254 209.10815042 -9.27685547 191.02392578 C-16.51916635 178.08823756 -15.29475355 164.15802668 -12 150 C-11.74347656 148.845 -11.48695313 147.69 -11.22265625 146.5 C-4.30849636 118.01247427 13.51625733 92.27227205 38 76 C38.66 76 39.32 76 40 76 C36.21126386 70.24349766 32.42126397 64.48782869 28.63049316 58.73266602 C27.29714663 56.70809589 25.964056 54.6833572 24.63122559 52.65844727 C14.9176223 37.89869602 14.9176223 37.89869602 5.1015625 23.20703125 C4.46143723 22.25481941 4.46143723 22.25481941 3.80838013 21.28337097 C1.8856057 18.42426362 -0.04298111 15.56962991 -1.98193359 12.72143555 C-2.64273926 11.74086182 -3.30354492 10.76028809 -3.984375 9.75 C-4.54866211 8.91984375 -5.11294922 8.0896875 -5.69433594 7.234375 C-6.93299481 5.11466557 -7.56093053 3.40042997 -8 1 C-3.375 -1.125 -3.375 -1.125 0 0 Z " fill="#880BAD" transform="translate(159,78)"/>
<path d="M0 0 C0.68333036 18.36056126 -0.07678932 32.81294676 -12.890625 47.109375 C-19.86704865 53.97928837 -26.6425122 56.3212561 -36 61 C-36.33 87.73 -36.66 114.46 -37 142 C-35.68 142.66 -34.36 143.32 -33 144 C-33.36309192 152.96461441 -34.10892655 161.80455215 -35.375 170.6875 C-35.48884033 171.53602539 -35.60268066 172.38455078 -35.7199707 173.25878906 C-36.45720933 178.17502476 -37.33974572 182.33974572 -41 186 C-42.68608966 186.07205511 -44.37500659 186.08386068 -46.0625 186.0625 C-46.98160156 186.05347656 -47.90070313 186.04445313 -48.84765625 186.03515625 C-49.55792969 186.02355469 -50.26820313 186.01195312 -51 186 C-50.52428058 181.77043814 -50.04382314 177.54142753 -49.5625 173.3125 C-49.42779297 172.11431641 -49.29308594 170.91613281 -49.15429688 169.68164062 C-49.02216797 168.52470703 -48.89003906 167.36777344 -48.75390625 166.17578125 C-48.57323608 164.58117065 -48.57323608 164.58117065 -48.38891602 162.9543457 C-48.03762378 160.28580371 -47.52785934 157.63929671 -47 155 C-52.61 155 -58.22 155 -64 155 C-64.103125 156.65 -64.20625 158.3 -64.3125 160 C-64.75268709 165.26966834 -65.49289175 170.42700616 -66.4375 175.625 C-66.55971924 176.32367188 -66.68193848 177.02234375 -66.80786133 177.7421875 C-67.75748525 182.75748525 -67.75748525 182.75748525 -70 185 C-72.94950047 186.00207388 -75.65162606 186.10806432 -78.75 186.0625 C-79.54921875 186.05347656 -80.3484375 186.04445313 -81.171875 186.03515625 C-82.07679688 186.01775391 -82.07679688 186.01775391 -83 186 C-81.92600935 173.30163994 -80.4401811 160.78513196 -78.35693359 148.21484375 C-77.78920298 144.69196265 -77.29064971 141.16102257 -76.8125 137.625 C-76.65394531 136.46226562 -76.49539062 135.29953125 -76.33203125 134.1015625 C-75.64741657 128.8988103 -75.64741657 128.8988103 -77 124 C-74.54137599 123.94616152 -72.0839245 123.90640962 -69.625 123.875 C-68.92632812 123.85824219 -68.22765625 123.84148437 -67.5078125 123.82421875 C-65.67102514 123.80655733 -63.83398037 123.89696739 -62 124 C-60 126 -60 126 -59.98828125 128.96875 C-60.09527344 130.1340625 -60.20226562 131.299375 -60.3125 132.5 C-60.41175781 133.6653125 -60.51101563 134.830625 -60.61328125 136.03125 C-61 139 -61 139 -62 141 C-56.72 141 -51.44 141 -46 141 C-46 114.27 -46 87.54 -46 60 C-40.06 57.525 -40.06 57.525 -34 55 C-23.08646805 48.19509185 -14.36963937 39.87531281 -11 27 C-10.40525292 22.7092015 -10.09178293 18.39822544 -10.02026367 14.06738281 C-9.79963373 9.12644618 -9.06122843 6.5089711 -5.55859375 2.8984375 C-2.38176353 0 -2.38176353 0 0 0 Z " fill="#8609AC" transform="translate(323,252)"/>
<path d="M0 0 C0 2.73654914 -0.33612531 4.86622597 -0.91235352 7.5222168 C-2.01363885 12.87258817 -2.74326012 18.22439057 -3.40234375 23.64453125 C-3.65512432 25.64003414 -3.9083937 27.63547516 -4.16210938 29.63085938 C-4.55327922 32.73532329 -4.94086898 35.84009468 -5.32006836 38.94604492 C-5.69126198 41.97195065 -6.07692214 44.99573085 -6.46484375 48.01953125 C-6.57432846 48.94667435 -6.68381317 49.87381744 -6.7966156 50.82905579 C-8.01230901 60.13386702 -8.01230901 60.13386702 -11 63 C-14.14116068 63.70500025 -17.20380976 63.62841707 -20.41015625 63.55859375 C-21.7950248 63.55509666 -21.7950248 63.55509666 -23.20787048 63.55152893 C-25.15893802 63.54178684 -27.10997704 63.51998907 -29.06079102 63.48706055 C-32.05462274 63.43763006 -35.04681265 63.42558013 -38.04101562 63.41992188 C-39.9349134 63.40583709 -41.82879685 63.38963312 -43.72265625 63.37109375 C-45.07110374 63.3630497 -45.07110374 63.3630497 -46.4467926 63.35484314 C-47.27783005 63.33885574 -48.10886749 63.32286835 -48.96508789 63.30639648 C-49.69772354 63.29575668 -50.43035919 63.28511688 -51.18519592 63.27415466 C-53 63 -53 63 -55 61 C-56.06907555 52.94722312 -54.72101246 44.55817033 -53.6875 36.5625 C-53.56995361 35.61536133 -53.45240723 34.66822266 -53.33129883 33.69238281 C-51.82144657 22.82144657 -51.82144657 22.82144657 -48 19 C-45.78144736 18.91216458 -43.56011504 18.89305391 -41.33984375 18.90234375 C-40.34314415 18.90446617 -40.34314415 18.90446617 -39.3263092 18.90663147 C-37.19666101 18.91224482 -35.06711661 18.92479946 -32.9375 18.9375 C-31.49674631 18.94251329 -30.05599097 18.94707649 -28.61523438 18.95117188 C-25.07678898 18.96221855 -21.53840461 18.97949208 -18 19 C-17.94158936 18.24074219 -17.88317871 17.48148437 -17.82299805 16.69921875 C-17.74090088 15.70535156 -17.65880371 14.71148437 -17.57421875 13.6875 C-17.49518311 12.70136719 -17.41614746 11.71523438 -17.3347168 10.69921875 C-16.92401002 7.38720263 -16.25144765 5.48435603 -14 3 C-9.2172507 -0.22557511 -5.56663461 -0.28792938 0 0 Z " fill="#850AAD" transform="translate(438,375)"/>
<path d="M0 0 C0.88068649 0.00022659 1.76137299 0.00045319 2.66874695 0.00068665 C3.61570938 0.0161705 4.56267181 0.03165436 5.53833008 0.04760742 C6.51071121 0.05185226 7.48309235 0.05609711 8.48493958 0.06047058 C11.59286099 0.07727302 14.70013567 0.11492838 17.80786133 0.15307617 C19.91397176 0.16812097 22.02009235 0.18180973 24.1262207 0.1940918 C29.29118371 0.22718173 34.45566284 0.27897508 39.62036133 0.34057617 C39.53289849 1.77918911 39.42470785 3.21655126 39.30786133 4.65307617 C39.22084961 5.85383789 39.22084961 5.85383789 39.13208008 7.07885742 C38.5299105 9.74035503 37.74259842 10.67198682 35.62036133 12.34057617 C31.10827212 13.80036974 26.31284674 13.43258569 21.62036133 13.34057617 C21.62036133 14.00057617 21.62036133 14.66057617 21.62036133 15.34057617 C22.50788086 15.30577148 22.50788086 15.30577148 23.41333008 15.27026367 C27.94085135 15.16686188 31.51773259 15.16105465 35.62036133 17.34057617 C36.62036133 18.34057617 36.62036133 18.34057617 36.80786133 22.15307617 C36.73263633 28.85884768 36.54536514 37.66101768 32.62036133 43.34057617 C28.50297133 44.68493828 24.30898367 44.50259112 20.02270508 44.50854492 C18.77669273 44.51353752 18.77669273 44.51353752 17.50550842 44.51863098 C15.75302686 44.52368468 14.00053572 44.52603979 12.24804688 44.52587891 C9.56404906 44.52807112 6.88045865 44.5462587 4.1965332 44.56518555 C2.49275857 44.56811862 0.78898198 44.57010399 -0.91479492 44.57104492 C-1.71796646 44.57823044 -2.521138 44.58541595 -3.34864807 44.59281921 C-7.21940247 44.57689083 -9.08348112 44.53801454 -12.37963867 42.34057617 C-12.64481999 38.16397044 -12.69850289 35.29716883 -11.37963867 31.34057617 C-8.40963867 31.01057617 -5.43963867 30.68057617 -2.37963867 30.34057617 C-3.51401367 29.86620117 -4.64838867 29.39182617 -5.81713867 28.90307617 C-9.37963867 27.34057617 -9.37963867 27.34057617 -10.37963867 26.34057617 C-10.94658158 19.25378976 -10.52220379 7.45829022 -6.09403992 1.65605164 C-3.91302612 -0.01745982 -2.72968497 -0.02346434 0 0 Z " fill="#8508AB" transform="translate(201.379638671875,393.659423828125)"/>
<path d="M0 0 C1.21641174 -0.00934319 1.21641174 -0.00934319 2.45739746 -0.01887512 C3.76529236 -0.0050605 3.76529236 -0.0050605 5.09960938 0.0090332 C6.44762634 0.00828545 6.44762634 0.00828545 7.82287598 0.00752258 C9.72259737 0.0098627 11.62232188 0.01958757 13.52197266 0.03613281 C16.43224774 0.05972438 19.34160674 0.05669345 22.25195312 0.05004883 C24.09701068 0.05562565 25.94206437 0.06273556 27.78710938 0.0715332 C28.65903931 0.0706218 29.53096924 0.06971039 30.42932129 0.06877136 C31.24026245 0.07830338 32.05120361 0.08783539 32.88671875 0.09765625 C33.95569397 0.10456734 33.95569397 0.10456734 35.04626465 0.11161804 C36.94335938 0.37231445 36.94335938 0.37231445 39.94335938 2.37231445 C39.14883883 23.166835 39.14883883 23.166835 33.94335938 28.37231445 C30.96240234 28.69116211 30.96240234 28.69116211 27.18554688 28.78637695 C26.1909697 28.81542618 26.1909697 28.81542618 25.17630005 28.84506226 C23.05711761 28.90487399 20.93788088 28.95124833 18.81835938 28.99731445 C17.38213769 29.03549291 15.94593892 29.07454457 14.50976562 29.11450195 C10.98784001 29.2105757 7.4657433 29.29460087 3.94335938 29.37231445 C3.94335938 30.03231445 3.94335938 30.69231445 3.94335938 31.37231445 C4.64420654 31.36184082 5.34505371 31.35136719 6.06713867 31.34057617 C9.25500882 31.29889777 12.44282152 31.2729506 15.63085938 31.24731445 C16.73365234 31.23055664 17.83644531 31.21379883 18.97265625 31.1965332 C20.03935547 31.19008789 21.10605469 31.18364258 22.20507812 31.17700195 C23.67400513 31.1612915 23.67400513 31.1612915 25.17260742 31.14526367 C28.38357348 31.40838804 31.58711942 32.0160745 33.94335938 34.37231445 C34.04126507 35.8696957 34.07310802 37.37174337 34.06835938 38.87231445 C34.07222656 40.0943457 34.07222656 40.0943457 34.07617188 41.34106445 C33.94335938 43.37231445 33.94335938 43.37231445 32.94335938 44.37231445 C29.87593091 44.48594413 26.83187793 44.53650677 23.76367188 44.5402832 C22.83996796 44.5436116 21.91626404 44.54694 20.96456909 44.55036926 C19.00584411 44.55544304 17.04711045 44.55777745 15.08837891 44.55761719 C12.08807117 44.55980011 9.08813305 44.57794119 6.08789062 44.59692383 C4.1881523 44.59985834 2.28841223 44.60184275 0.38867188 44.6027832 C-0.51140594 44.60996872 -1.41148376 44.61715424 -2.33883667 44.6245575 C-3.17625397 44.62148087 -4.01367126 44.61840424 -4.87646484 44.61523438 C-5.98113602 44.6173719 -5.98113602 44.6173719 -7.10812378 44.61955261 C-9.05664062 44.37231445 -9.05664062 44.37231445 -12.05664062 42.37231445 C-13.81189086 34.50810506 -10.92132869 25.20567733 -9.43261719 17.43481445 C-8.72284674 13.54121658 -8.20607513 9.61496006 -7.68164062 5.69262695 C-6.52972728 1.41614865 -4.32275591 -0.00381793 0 0 Z " fill="#8708AD" transform="translate(324.056640625,393.627685546875)"/>
<path d="M0 0 C0.97096619 0.00707474 1.94193237 0.01414948 2.94232178 0.0214386 C6.04045994 0.04940492 9.13678408 0.11214857 12.234375 0.17578125 C14.33591138 0.20086118 16.43747612 0.22367488 18.5390625 0.24414062 C23.68819787 0.29923918 28.835979 0.38552832 33.984375 0.48828125 C34.073925 9.03533125 34.073925 9.03533125 31.984375 11.48828125 C25.459301 14.06348602 18.97702869 13.71571672 12.046875 13.61328125 C10.88607422 13.60425781 9.72527344 13.59523438 8.52929688 13.5859375 C5.68077392 13.56249287 2.83268422 13.52967647 -0.015625 13.48828125 C-0.10650391 14.68324219 -0.10650391 14.68324219 -0.19921875 15.90234375 C-0.28300781 16.96195312 -0.36679688 18.0215625 -0.453125 19.11328125 C-0.53433594 20.15742188 -0.61554688 21.2015625 -0.69921875 22.27734375 C-1.00336892 25.36390475 -1.50573985 28.42897034 -2.015625 31.48828125 C8.544375 31.48828125 19.104375 31.48828125 29.984375 31.48828125 C28.77965059 41.12607653 28.77965059 41.12607653 26.984375 43.48828125 C24.28406818 44.3595979 21.8076562 44.6176564 18.98193359 44.63354492 C18.20788177 44.63992477 17.43382996 44.64630463 16.63632202 44.65287781 C15.81016388 44.65399063 14.98400574 44.65510345 14.1328125 44.65625 C13.27756989 44.6595784 12.42232727 44.6629068 11.54116821 44.66633606 C9.73741187 44.6713899 7.93364622 44.67374486 6.12988281 44.67358398 C3.3624757 44.67577879 0.59546205 44.69397328 -2.171875 44.71289062 C-3.9244778 44.71582314 -5.6770825 44.71780888 -7.4296875 44.71875 C-8.67499741 44.72952827 -8.67499741 44.72952827 -9.94546509 44.74052429 C-15.78679017 44.71711608 -15.78679017 44.71711608 -18.015625 42.48828125 C-18.50758133 34.64977709 -17.34788911 26.99181516 -16.265625 19.23828125 C-16.10835938 17.9853125 -15.95109375 16.73234375 -15.7890625 15.44140625 C-15.62148437 14.23484375 -15.45390625 13.02828125 -15.28125 11.78515625 C-15.13461914 10.69557617 -14.98798828 9.60599609 -14.83691406 8.48339844 C-12.47384427 -0.13436025 -7.92961598 -0.21728053 0 0 Z " fill="#850BAD" transform="translate(86.015625,393.51171875)"/>
<path d="M0 0 C4.05987747 1.68336383 7.11297132 4.51125545 10.375 7.375 C11.62092437 8.45722628 12.86702338 9.53925154 14.11328125 10.62109375 C14.75217285 11.17780762 15.39106445 11.73452148 16.04931641 12.30810547 C17.97525176 13.97853501 19.91266426 15.63439116 21.85546875 17.28515625 C22.47695801 17.81383301 23.09844727 18.34250977 23.73876953 18.88720703 C24.92231342 19.89329856 26.10682752 20.89825028 27.29248047 21.90185547 C35.9112312 29.25471921 42.64630987 37.28682008 44 49 C44.9085672 63.65064606 42.12240779 76.93703443 38 91 C37.67 91 37.34 91 37 91 C36.67 78.46 36.34 65.92 36 53 C30.72 50.36 25.44 47.72 20 45 C9.35407178 36.71983361 2.15842077 26.5391848 0 13 C-0.06652855 10.73004581 -0.08543751 8.45831305 -0.0625 6.1875 C-0.05347656 5.02605469 -0.04445312 3.86460937 -0.03515625 2.66796875 C-0.02355469 1.78753906 -0.01195312 0.90710938 0 0 Z " fill="#FCF9FD" transform="translate(186,260)"/>
<path d="M0 0 C0.42541407 15.29127244 -1.99016709 27.11517463 -12 39.25 C-18.78744673 46.38315709 -27.28423502 51.38070584 -37 53 C-37 65.87 -37 78.74 -37 92 C-44.20714177 84.79285823 -44.06394787 66.60156796 -44.375 56.9375 C-44.15024905 44.42168169 -40.15723235 35.03102261 -31.33203125 26.38671875 C-25.68333973 21.0457308 -19.74581999 16.08439455 -13.6875 11.21484375 C-9.97349089 8.15402519 -6.43481043 4.91540079 -2.8984375 1.65234375 C-1 0 -1 0 0 0 Z " fill="#FDFBFE" transform="translate(314,259)"/>
<path d="M0 0 C5.01918408 -0.08132937 8.78959816 0.33606751 12.55859375 3.828125 C13.24421387 4.45984619 13.92983398 5.09156738 14.63623047 5.74243164 C15.41627441 6.4874292 16.19631836 7.23242676 17 8 C18.3924292 9.31955688 18.3924292 9.31955688 19.81298828 10.66577148 C22.39563934 13.13027491 24.94618429 15.62553957 27.48510742 18.13500977 C28.54758587 19.18071484 29.61542642 20.22099636 30.68823242 21.25610352 C32.25352206 22.76695241 33.80200638 24.29331536 35.34765625 25.82421875 C36.26554932 26.72229248 37.18344238 27.62036621 38.12915039 28.5456543 C40 31 40 31 39.98046875 32.88378906 C39.65691406 33.58213867 39.33335937 34.28048828 39 35 C38.34245728 36.58566772 38.34245728 36.58566772 37.67163086 38.20336914 C37.10613462 39.48215505 36.53694985 40.75931378 35.96484375 42.03515625 C35.65482422 42.73294693 35.34480469 43.43073761 35.02539062 44.14967346 C33.99953116 46.45549784 32.96866275 48.75904288 31.9375 51.0625 C31.21352591 52.68599184 30.48965048 54.30952769 29.76586914 55.93310547 C24.56666061 67.57789198 19.27669935 79.18002958 13.95285034 90.76824951 C6.45311394 107.09863199 -0.7943076 123.53812577 -8 140 C-9.18631438 136.44105685 -8.72749245 135.18393187 -7.7421875 131.6171875 C-7.44908691 130.54106201 -7.15598633 129.46493652 -6.85400391 128.35620117 C-6.53093262 127.20740479 -6.20786133 126.0586084 -5.875 124.875 C-5.38459229 123.10636597 -5.38459229 123.10636597 -4.88427734 121.30200195 C-4.22686183 118.93902124 -3.56562413 116.57710028 -2.90039062 114.21630859 C-2.1572701 111.5617886 -1.43758495 108.90354103 -0.734375 106.23828125 C2.38342802 94.66196882 7.10690184 83.92169392 12 73 C12.68059785 71.4718676 13.36074073 69.94353251 14.04052734 68.41503906 C17.81594747 59.92634202 21.60032361 51.4416633 25.40234375 42.96484375 C25.90183784 41.84893356 25.90183784 41.84893356 26.41142273 40.71047974 C27.87986747 37.44102798 29.35619502 34.1856164 31 31 C30.20480957 30.6915918 30.20480957 30.6915918 29.39355469 30.37695312 C26.00179316 28.42575616 23.43949413 25.72455618 20.703125 22.96875 C20.10949158 22.37703003 19.51585815 21.78531006 18.90423584 21.17565918 C17.65456282 19.92734419 16.40740008 18.67651177 15.16259766 17.42333984 C13.24992048 15.49992003 11.32676881 13.58743901 9.40234375 11.67578125 C8.18946202 10.46157861 6.97720048 9.24675607 5.765625 8.03125 C5.18758118 7.45725464 4.60953735 6.88325928 4.01397705 6.29187012 C0 2.22993434 0 2.22993434 0 0 Z " fill="#8A0EAE" transform="translate(283,35)"/>
<path d="M0 0 C5.77880221 4.07331044 10.95243209 8.63472699 16.14453125 13.42578125 C18.86510508 15.87839159 21.64856676 18.20176921 24.5 20.5 C50.1278763 41.20791151 50.1278763 41.20791151 52 56 C52.80473549 68.64987716 51.04401023 80.39640733 47.8125 92.625 C46.65940695 97.27818655 46.65940695 97.27818655 47 102 C49.36060458 105.11245542 52.15062966 107.71334156 55 110.375 C55.763125 111.11105469 56.52625 111.84710938 57.3125 112.60546875 C59.19554387 114.41789848 61.09111959 116.21486682 63 118 C62.1875 119.9375 62.1875 119.9375 61 122 C60.01 122.33 59.02 122.66 58 123 C54.95535942 120.22880723 51.94932312 117.42153112 48.97290039 114.57714844 C47.95724035 113.61655917 46.93189314 112.66610029 45.89672852 111.7265625 C37.35242773 103.95227822 37.35242773 103.95227822 36.51806641 99.33032227 C36.75511227 96.74858364 37.26107817 94.4815524 38 92 C38.2371875 90.72511719 38.474375 89.45023437 38.71875 88.13671875 C38.9765625 86.99847656 39.234375 85.86023438 39.5 84.6875 C39.7578125 83.53636719 40.015625 82.38523437 40.28125 81.19921875 C40.70463792 79.31468231 41.13333142 77.43130067 41.57421875 75.55078125 C43.54276981 63.75753499 42.58634274 50.44493656 35.75 40.3125 C35.1725 39.549375 34.595 38.78625 34 38 C34 37.34 34 36.68 34 36 C33.43410156 35.75378906 32.86820313 35.50757813 32.28515625 35.25390625 C29.60751742 33.78463776 27.66956388 32.02247565 25.4375 29.9375 C21.87703072 26.66981527 18.2606708 23.53520807 14.5 20.5 C13.14648438 19.39011719 13.14648438 19.39011719 11.765625 18.2578125 C9.87407819 16.7135836 7.96694013 15.1883101 6.046875 13.6796875 C-0.80599985 8.03276548 -0.80599985 8.03276548 -1.3984375 4.87890625 C-1.125 2.9375 -1.125 2.9375 0 0 Z " fill="#890BAD" transform="translate(187,252)"/>
<path d="M0 0 C2.475 1.485 2.475 1.485 5 3 C0.98612015 7.17755262 -3.32211399 10.84496313 -7.8125 14.5 C-8.54936035 15.10295898 -9.2862207 15.70591797 -10.04541016 16.32714844 C-12.36143367 18.22077737 -14.68070319 20.11038242 -17 22 C-18.52226193 23.24463695 -20.0443998 24.48942565 -21.56640625 25.734375 C-23.00236941 26.90653765 -24.43855847 28.07842363 -25.875 29.25 C-26.54635986 29.79849609 -27.21771973 30.34699219 -27.90942383 30.91210938 C-28.53486084 31.42064453 -29.16029785 31.92917969 -29.8046875 32.453125 C-30.35108887 32.89817383 -30.89749023 33.34322266 -31.46044922 33.80175781 C-32.92117693 34.9386515 -34.45986328 35.97324219 -36 37 C-32.60043369 52.58669084 -28.64746476 68.03080468 -24.18066406 83.34472656 C-22.24882869 90.00892728 -20.54355859 96.71180647 -18.90307617 103.45288086 C-17.12732385 110.67389222 -15.094185 117.81065346 -12.96679688 124.93554688 C-11.58604324 129.63010922 -10.55145564 134.13537344 -10 139 C-12.97997185 135.45293117 -14.7571836 131.46090216 -16.6171875 127.26171875 C-16.95622101 126.50389603 -17.29525452 125.7460733 -17.64456177 124.96528625 C-18.36148348 123.35845703 -19.0757694 121.75044954 -19.78759766 120.14135742 C-20.85609342 117.73016503 -21.93717218 115.3249168 -23.01953125 112.91992188 C-29.0887754 99.3280638 -33.72815185 85.66460666 -37.5 71.25 C-38.09234765 69.00257774 -38.68479647 66.75518214 -39.27734375 64.5078125 C-39.70829346 62.8666748 -39.70829346 62.8666748 -40.14794922 61.19238281 C-40.946584 58.200134 -41.77941953 55.22033899 -42.62890625 52.2421875 C-42.87253906 51.37174805 -43.11617187 50.50130859 -43.3671875 49.60449219 C-43.81845814 47.99525602 -44.28010845 46.38888103 -44.75390625 44.78613281 C-45.52967374 41.97269973 -46.1547599 39.6819108 -45.5 36.796875 C-43.29597673 34.15663879 -40.67651431 32.1701156 -37.9375 30.125 C-36.66513433 29.15173958 -35.39437245 28.17637985 -34.125 27.19921875 C-33.45339844 26.68278809 -32.78179687 26.16635742 -32.08984375 25.63427734 C-28.47788103 22.80968874 -24.96259193 19.86922804 -21.4375 16.9375 C-14.4193183 11.11769991 -7.27665196 5.49229035 0 0 Z " fill="#890BAD" transform="translate(245,35)"/>
<path d="M0 0 C3.63326005 1.81663003 5.43095204 3.1844191 8.22265625 5.9921875 C9.00833984 6.77980469 9.79402344 7.56742187 10.60351562 8.37890625 C11.41498047 9.20261719 12.22644531 10.02632813 13.0625 10.875 C13.87783203 11.69097656 14.69316406 12.50695312 15.53320312 13.34765625 C24.93514128 22.81912394 24.93514128 22.81912394 25.12036133 26.19140625 C25.0045874 26.97386719 24.88881348 27.75632812 24.76953125 28.5625 C24.6504541 29.44421875 24.53137695 30.3259375 24.40869141 31.234375 C24.20638916 32.60335937 24.20638916 32.60335937 24 34 C23.79147259 35.77035517 23.58709023 37.54120319 23.38671875 39.3125 C21.56824959 54.25882186 19.36888015 69.13161245 17 84 C16.34 84 15.68 84 15 84 C15 81.69 15 79.38 15 77 C14.01 77.495 14.01 77.495 13 78 C13.10828125 76.96552734 13.10828125 76.96552734 13.21875 75.91015625 C13.81193942 69.90411341 14.09892295 64.0343 14 58 C9.44508386 55.79600832 4.97093824 55.41153737 0 55 C0 54.34 0 53.68 0 53 C0.97582031 52.91363281 1.95164063 52.82726562 2.95703125 52.73828125 C4.22933594 52.59777344 5.50164062 52.45726562 6.8125 52.3125 C8.70935547 52.12107422 8.70935547 52.12107422 10.64453125 51.92578125 C14.08952665 51.31226268 14.08952665 51.31226268 15.88671875 48.79296875 C17.29299556 45.55255628 17.29299556 45.55255628 18 40 C12.06 39.67 6.12 39.34 0 39 C0 26.13 0 13.26 0 0 Z " fill="#FAF8FD" transform="translate(223,354)"/>
<path d="M0 0 C0.66 0.33 1.32 0.66 2 1 C2.12592325 7.20143126 1.7286204 12.98133454 0.72265625 19.09375 C0.59185165 19.92531616 0.46104706 20.75688232 0.32627869 21.61364746 C-0.08850544 24.24350869 -0.51252277 26.87176856 -0.9375 29.5 C-1.35719427 32.12847144 -1.7748837 34.75724383 -2.19056702 37.38635254 C-2.4483093 39.01300414 -2.7085741 40.63925899 -2.97190857 42.26501465 C-3.70542076 46.85419624 -4.2755177 51.41992617 -4.66603088 56.05187988 C-5 58 -5 58 -6.6875 61.0625 C-12.10186295 64.22939154 -17.87780427 63.37279947 -24 63 C-23.52691406 62.28569824 -23.05382812 61.57139648 -22.56640625 60.83544922 C-20.96872988 57.94339602 -20.40762083 55.87858607 -19.9375 52.6328125 C-19.78200684 51.59286133 -19.62651367 50.55291016 -19.46630859 49.48144531 C-19.31242676 48.37381836 -19.15854492 47.26619141 -19 46.125 C-18.83193848 44.9812793 -18.66387695 43.83755859 -18.49072266 42.65917969 C-17.22188105 33.91827081 -16.06847184 25.15962997 -15.0390625 16.38720703 C-13.63281479 4.88401707 -13.63281479 4.88401707 -10.375 1.125 C-6.78924475 -0.57351564 -3.95344531 -0.25506099 0 0 Z " fill="#8609AD" transform="translate(383,375)"/>
<path d="M0 0 C3.96 0 7.92 0 12 0 C11.59190808 8.97802219 10.55043404 17.69432122 9.125 26.5625 C8.96354492 27.60921875 8.80208984 28.6559375 8.63574219 29.734375 C6.91110515 40.08889485 6.91110515 40.08889485 3 44 C0.81360547 44.07258946 -1.37500389 44.08373783 -3.5625 44.0625 C-5.35880859 44.04896484 -5.35880859 44.04896484 -7.19140625 44.03515625 C-8.11824219 44.02355469 -9.04507813 44.01195312 -10 44 C-9.30608154 43.27707764 -9.30608154 43.27707764 -8.59814453 42.53955078 C-6.34822321 38.96428626 -6.00919039 35.50568694 -5.4296875 31.3671875 C-5.30312775 30.53414093 -5.17656799 29.70109436 -5.0461731 28.84280396 C-4.64479763 26.1883763 -4.25923696 23.53195773 -3.875 20.875 C-3.48076843 18.21141591 -3.08326483 15.54836697 -2.68240356 12.88577271 C-2.43414712 11.23041547 -2.19026041 9.57439591 -1.95114136 7.91769409 C-1.11021389 2.22042779 -1.11021389 2.22042779 0 0 Z " fill="#8509AD" transform="translate(175,394)"/>
<path d="M0 0 C0.66 0 1.32 0 2 0 C1.66236843 9.2848683 0.50445655 18.43548523 -0.8125 27.625 C-0.96557617 28.77532715 -1.11865234 29.9256543 -1.27636719 31.11083984 C-1.43911133 32.20090332 -1.60185547 33.2909668 -1.76953125 34.4140625 C-1.90979736 35.3932666 -2.05006348 36.3724707 -2.19458008 37.38134766 C-3.15446057 40.50219585 -4.55004433 41.89683886 -7 44 C-7.66 43.67 -8.32 43.34 -9 43 C-8.690625 41.948125 -8.38125 40.89625 -8.0625 39.8125 C-7.25259382 36.90636606 -6.59165877 33.95829383 -6 31 C-12.6 31 -19.2 31 -26 31 C-25.505 26.545 -25.505 26.545 -25 22 C-24.9409763 20.14665593 -24.91138592 18.29159981 -24.9375 16.4375 C-24.96875 14.21875 -24.96875 14.21875 -25 12 C-24.43490723 11.98541748 -23.86981445 11.97083496 -23.28759766 11.95581055 C-20.73269981 11.88143942 -18.17912502 11.78474758 -15.625 11.6875 C-14.73554688 11.66494141 -13.84609375 11.64238281 -12.9296875 11.61914062 C-11.65351563 11.5659668 -11.65351563 11.5659668 -10.3515625 11.51171875 C-9.17327881 11.47244263 -9.17327881 11.47244263 -7.97119141 11.43237305 C-5.59959844 11.15110403 -5.59959844 11.15110403 -4 8 C-2.68 8.33 -1.36 8.66 0 9 C0 6.03 0 3.06 0 0 Z " fill="#FBF8FE" transform="translate(172,394)"/>
<path d="M0 0 C0 12.87 0 25.74 0 39 C-5.28 39 -10.56 39 -16 39 C-15.67 34.05 -15.34 29.1 -15 24 C-16.98 23.01 -18.96 22.02 -21 21 C-16.77041966 15.95179121 -12.35800414 11.20353723 -7.6875 6.5625 C-7.05521484 5.92634766 -6.42292969 5.29019531 -5.77148438 4.63476562 C-4.86946289 3.73467773 -4.86946289 3.73467773 -3.94921875 2.81640625 C-3.40612061 2.27443604 -2.86302246 1.73246582 -2.3034668 1.17407227 C-1 0 -1 0 0 0 Z " fill="#FEFEFE" transform="translate(277,354)"/>
<path d="M0 0 C2.84518195 1.34297646 5.33535286 2.86348985 7.87109375 4.72265625 C8.60473145 5.25737549 9.33836914 5.79209473 10.09423828 6.34301758 C10.86751465 6.91044678 11.64079102 7.47787598 12.4375 8.0625 C19.88447178 13.48789176 27.39423403 18.79959111 35 24 C33.43518473 34.42368879 30.59508056 44.52174311 27.875 54.6875 C27.40195217 56.46799497 26.92929276 58.24859318 26.45703125 60.02929688 C25.30916212 64.3540679 24.1560458 68.67740782 23 73 C22.67 73 22.34 73 22 73 C22.39482361 65.41666378 23.25397401 58.04540743 24.5 50.5625 C25.43745344 44.76139237 26.36240877 38.96754272 27 33.125 C27.12375 32.05507812 27.2475 30.98515625 27.375 29.8828125 C26.84150578 25.7815757 25.11532328 24.68072146 22 22 C20.73682434 20.82988971 19.47802092 19.65504898 18.22265625 18.4765625 C16.14217327 16.54821361 14.0596117 14.62234632 11.97070312 12.703125 C7.65218101 8.69160683 3.75333022 4.54628731 0 0 Z " fill="#8B0FAF" transform="translate(256,50)"/>
<path d="M0 0 C-0.11573266 1.85476817 -0.24308115 3.70881274 -0.375 5.5625 C-0.44460938 6.59503906 -0.51421875 7.62757813 -0.5859375 8.69140625 C-1 12 -1 12 -3 19 C-8.28 19 -13.56 19 -19 19 C-18.85980308 16.18711295 -18.71312045 13.37483115 -18.5625 10.5625 C-18.52318359 9.76005859 -18.48386719 8.95761719 -18.44335938 8.13085938 C-18.11328125 2.11328125 -18.11328125 2.11328125 -17 1 C-14.51550143 0.76240332 -12.05267525 0.57775918 -9.5625 0.4375 C-8.86833984 0.39431641 -8.17417969 0.35113281 -7.45898438 0.30664062 C-2.43105159 0 -2.43105159 0 0 0 Z " fill="#DDFBFE" transform="translate(418,406)"/>
<path d="M0 0 C0.99 0.33 1.98 0.66 3 1 C2.34 1.66 1.68 2.32 1 3 C0.43731365 5.40842123 -0.00013114 7.74771717 -0.375 10.1875 C-0.55953735 11.32989136 -0.55953735 11.32989136 -0.74780273 12.49536133 C-1.5984089 17.93243596 -2.31943837 23.38457965 -3.01171875 28.84375 C-3.14220612 29.87076775 -3.14220612 29.87076775 -3.27532959 30.91853333 C-3.71179617 34.36860052 -4.13939792 37.81947743 -4.55419922 41.2722168 C-4.79227295 43.20061401 -4.79227295 43.20061401 -5.03515625 45.16796875 C-5.1731665 46.31547607 -5.31117676 47.4629834 -5.45336914 48.64526367 C-7.1439076 59.02029224 -7.1439076 59.02029224 -11 62 C-11.99 61.505 -11.99 61.505 -13 61 C-13 58.03 -13 55.06 -13 52 C-16.690823 50.32101428 -19.69499592 49.71566858 -23.73828125 49.5859375 C-24.80498047 49.54726563 -25.87167969 49.50859375 -26.97070312 49.46875 C-28.07349609 49.4378125 -29.17628906 49.406875 -30.3125 49.375 C-31.43462891 49.33632813 -32.55675781 49.29765625 -33.71289062 49.2578125 C-36.47509852 49.16377989 -39.237304 49.07812659 -42 49 C-42 48.34 -42 47.68 -42 47 C-42.66 46.67 -43.32 46.34 -44 46 C-43.05157227 45.99589111 -42.10314453 45.99178223 -41.12597656 45.98754883 C-37.59917184 45.96054254 -34.0741036 45.91143624 -30.54785156 45.84741211 C-29.02322067 45.82424783 -27.49843012 45.80984 -25.97363281 45.80444336 C-23.77828678 45.79514105 -21.58544588 45.75413304 -19.390625 45.70703125 C-18.07094727 45.6913208 -16.75126953 45.67561035 -15.39160156 45.65942383 C-11.88039903 45.28962902 -11.88039903 45.28962902 -9.59912109 42.74267578 C-8.05844128 40.10023348 -7.38461052 38.41118149 -7.0234375 35.41015625 C-6.91128906 34.54970703 -6.79914063 33.68925781 -6.68359375 32.80273438 C-6.58175781 31.89845703 -6.47992188 30.99417969 -6.375 30.0625 C-6.25511719 29.13115234 -6.13523437 28.19980469 -6.01171875 27.24023438 C-5.65934222 24.49510757 -5.32658154 21.74830138 -5 19 C-4.67913702 16.33131701 -4.34488696 13.66580658 -4 11 C-3.814375 9.4221875 -3.814375 9.4221875 -3.625 7.8125 C-2.93817703 4.72179665 -1.76484045 2.60889458 0 0 Z " fill="#F1E3FB" transform="translate(370,376)"/>
<path d="M0 0 C0.66 0.33 1.32 0.66 2 1 C1.23429687 1.69609375 1.23429687 1.69609375 0.453125 2.40625 C-17.50406474 19.47194805 -30.49903204 42.48735043 -38 66 C-38.33 66 -38.66 66 -39 66 C-37.69018093 47.00762349 -29.45016237 30.18305435 -17 16 C-16.34515625 15.16082031 -15.6903125 14.32164062 -15.015625 13.45703125 C-13.15538165 11.18940903 -11.28825087 9.33710124 -9.0625 7.4375 C-8.37285156 6.84710938 -7.68320313 6.25671875 -6.97265625 5.6484375 C-4.67620782 3.72942515 -2.35836503 1.84247268 0 0 Z " fill="#8B0DAF" transform="translate(208,165)"/>
<path d="M0 0 C5.49713154 0 8.23821621 0.75772971 12.28125 4.5625 C13.70583394 6.0240176 15.11182568 7.50385657 16.5 9 C17.59054688 10.12535156 17.59054688 10.12535156 18.703125 11.2734375 C24 16.7893562 24 16.7893562 24 18 C17.60627583 18.96509044 11.46788758 19.08084859 5 19 C5 13.72 5 8.44 5 3 C2.525 2.01 2.525 2.01 0 1 C0 0.67 0 0.34 0 0 Z " fill="#9014B5" transform="translate(144,375)"/>
<path d="M0 0 C0.66 0.33 1.32 0.66 2 1 C1.52949219 1.70511719 1.05898437 2.41023438 0.57421875 3.13671875 C-3.1541423 9.91808016 -3.29250074 18.39498085 -3 26 C1.455 27.98 1.455 27.98 6 30 C6 30.33 6 30.66 6 31 C2.37 31 -1.26 31 -5 31 C-5.04125 32.77375 -5.0825 34.5475 -5.125 36.375 C-5.14820313 37.37273437 -5.17140625 38.37046875 -5.1953125 39.3984375 C-5.27216848 42.16262173 -5.27216848 42.16262173 -3 44 C-5.52523163 43.63925262 -7.05733784 42.96150174 -9.1875 41.53125 C-11.9738904 37.63991168 -10.96211664 34.30754648 -10.25 29.75 C-10.1365625 28.90953125 -10.023125 28.0690625 -9.90625 27.203125 C-9.62390956 25.13262845 -9.31455301 23.06584813 -9 21 C-8.01 20.67 -7.02 20.34 -6 20 C-5.81824219 18.44539063 -5.81824219 18.44539063 -5.6328125 16.859375 C-5.46392819 15.48953562 -5.29463589 14.11974651 -5.125 12.75 C-5.04636719 12.06808594 -4.96773437 11.38617188 -4.88671875 10.68359375 C-4.43682834 7.11907743 -4.01989193 4.02235681 -2 1 C-1.34 0.67 -0.68 0.34 0 0 Z " fill="#F7F6FD" transform="translate(195,394)"/>
<path d="M0 0 C0.99 0.33 1.98 0.66 3 1 C2.34 1.66 1.68 2.32 1 3 C0.43731365 5.40842123 -0.00013114 7.74771717 -0.375 10.1875 C-0.4980249 10.94909424 -0.6210498 11.71068848 -0.74780273 12.49536133 C-1.5984089 17.93243596 -2.31943837 23.38457965 -3.01171875 28.84375 C-3.09871033 29.5284285 -3.1857019 30.21310699 -3.27532959 30.91853333 C-3.71179617 34.36860052 -4.13939792 37.81947743 -4.55419922 41.2722168 C-4.71291504 42.55781494 -4.87163086 43.84341309 -5.03515625 45.16796875 C-5.1731665 46.31547607 -5.31117676 47.4629834 -5.45336914 48.64526367 C-7.1439076 59.02029224 -7.1439076 59.02029224 -11 62 C-11.66 61.67 -12.32 61.34 -13 61 C-12.525625 60.195625 -12.05125 59.39125 -11.5625 58.5625 C-9.98745785 54.97140391 -9.56235731 52.34775623 -9.26220703 48.50683594 C-9.0178171 46.17034077 -8.60517687 43.98196187 -8.09375 41.69140625 C-6.49152883 33.90137092 -5.71075232 25.97103225 -4.82543945 18.07250977 C-4.59341682 16.0195983 -4.3466418 13.96888256 -4.09765625 11.91796875 C-3.95851807 10.70906982 -3.81937988 9.5001709 -3.67602539 8.25463867 C-2.98384459 4.92222181 -1.92466018 2.78013765 0 0 Z " fill="#23E1F5" transform="translate(370,376)"/>
<path d="M0 0 C1.32 0.66 2.64 1.32 4 2 C2.07301251 22.10390347 -0.82305253 42.05973992 -4 62 C-4.66 62 -5.32 62 -6 62 C-5.62329018 52.58225461 -4.70743182 43.45451307 -3.16357422 34.16113281 C-1.28634742 22.82406495 0.36568531 11.51908735 0 0 Z " fill="#19E8F7" transform="translate(244,376)"/>
<path d="M0 0 C0.66 0.33 1.32 0.66 2 1 C1.01 2.485 1.01 2.485 0 4 C-0.49943306 6.13675308 -0.49943306 6.13675308 -0.74609375 8.52807617 C-0.91637085 9.900467 -0.91637085 9.900467 -1.09008789 11.30058289 C-1.20473389 12.28807022 -1.31937988 13.27555756 -1.4375 14.29296875 C-1.62590454 15.82296257 -1.62590454 15.82296257 -1.81811523 17.38386536 C-2.21963854 20.65087442 -2.61063783 23.91902093 -3 27.1875 C-3.39037584 30.43798129 -3.78314568 33.68810988 -4.18188477 36.93757629 C-4.42968217 38.95932453 -4.67261142 40.98167732 -4.90991211 43.00468445 C-6.60581896 56.90872844 -6.60581896 56.90872844 -10 62 C-11.32 61.67 -12.64 61.34 -14 61 C-13.30487305 60.47152466 -13.30487305 60.47152466 -12.59570312 59.93237305 C-10.30272844 57.15561439 -10.0856708 54.61741008 -9.46875 51.08203125 C-9.28463562 50.03327568 -9.28463562 50.03327568 -9.09680176 48.96333313 C-7.4141908 39.03629523 -6.32683825 29.01216487 -5.19775391 19.01000977 C-4.90364242 16.42575962 -4.59362851 13.84381516 -4.28125 11.26171875 C-4.19677612 10.47431808 -4.11230225 9.68691742 -4.02526855 8.87565613 C-3.35417827 3.45197132 -3.35417827 3.45197132 -1.41992188 0.98364258 C-0.95134766 0.65904053 -0.48277344 0.33443848 0 0 Z " fill="#F91AFB" transform="translate(437,376)"/>
<path d="M0 0 C0.66 0 1.32 0 2 0 C2.12592325 6.20143126 1.7286204 11.98133454 0.72265625 18.09375 C0.59185165 18.92531616 0.46104706 19.75688232 0.32627869 20.61364746 C-0.08850544 23.24350869 -0.51252277 25.87176856 -0.9375 28.5 C-1.35719427 31.12847144 -1.7748837 33.75724383 -2.19056702 36.38635254 C-2.4483093 38.01300414 -2.7085741 39.63925899 -2.97190857 41.26501465 C-3.70796189 45.87009471 -4.28024691 50.45328569 -4.67823792 55.10070801 C-5.11008314 57.64979694 -6.18921733 59.18921733 -8 61 C-8.66 60.67 -9.32 60.34 -10 60 C-9.80664062 59.45142334 -9.61328125 58.90284668 -9.4140625 58.33764648 C-7.11543663 51.33437641 -6.0865011 44.38525391 -5.23498535 37.07791138 C-4.83577056 33.65394457 -4.40869303 30.23343081 -3.984375 26.8125 C-3.90169373 26.14029922 -3.81901245 25.46809845 -3.73382568 24.77552795 C-2.70463131 16.48251828 -1.38553984 8.23976347 0 0 Z " fill="#FA0CFC" transform="translate(383,376)"/>
<path d="M0 0 C0.99 0.33 1.98 0.66 3 1 C2.01 1.495 2.01 1.495 1 2 C0.31068656 4.34907875 0.31068656 4.34907875 -0.125 7.0625 C-0.41375 8.691875 -0.7025 10.32125 -1 12 C2.96 12 6.92 12 11 12 C10.37128742 18.9158384 9.47660064 25.74433896 8.40234375 32.60546875 C7.98785672 36.1024516 7.93294716 39.48196115 8 43 C7.01 42.67 6.02 42.34 5 42 C4.83643844 35.30079127 5.42397869 29.0438831 6.5 22.4375 C6.64308594 21.52419922 6.78617188 20.61089844 6.93359375 19.66992188 C7.28296798 17.44557264 7.63851822 15.2224079 8 13 C7.30132812 13.02320313 6.60265625 13.04640625 5.8828125 13.0703125 C4.97273438 13.08835937 4.06265625 13.10640625 3.125 13.125 C2.22007813 13.14820313 1.31515625 13.17140625 0.3828125 13.1953125 C-2 13 -2 13 -4 11 C-3.65922921 3.84381339 -3.65922921 3.84381339 -1.4375 1 C-0.963125 0.67 -0.48875 0.34 0 0 Z " fill="#4CCBF0" transform="translate(123,394)"/>
<path d="M0 0 C0.66 0 1.32 0 2 0 C2 7.26 2 14.52 2 22 C1.01 21.67 0.02 21.34 -1 21 C-1.03738281 21.9178125 -1.07476562 22.835625 -1.11328125 23.78125 C-1.82119205 36.99558499 -1.82119205 36.99558499 -5 43 C-7.10546875 43.69921875 -7.10546875 43.69921875 -9 44 C-8.53811279 43.19353027 -8.07622559 42.38706055 -7.6003418 41.55615234 C-5.72484262 37.38856714 -5.0444043 33.59410781 -4.39453125 29.1015625 C-4.20113411 27.84912247 -4.20113411 27.84912247 -4.00382996 26.57138062 C-3.59723213 23.92393047 -3.20467096 21.27462158 -2.8125 18.625 C-2.5380362 16.82147329 -2.26265511 15.01808593 -1.98632812 13.21484375 C-1.31359337 8.81143733 -0.65343255 4.40631032 0 0 Z " fill="#E20AEB" transform="translate(187,394)"/>
<path d="M0 0 C0.66 0.33 1.32 0.66 2 1 C1.53980469 1.77214844 1.07960938 2.54429687 0.60546875 3.33984375 C-1.45616971 8.03997815 -2.05842239 12.49713265 -2.6875 17.5625 C-2.81415039 18.53670898 -2.94080078 19.51091797 -3.07128906 20.51464844 C-5.07281694 32.50428139 -5.07281694 32.50428139 -3 44 C-4.65 43.34 -6.3 42.68 -8 42 C-8.24073392 34.2633098 -7.32648419 26.89569024 -6.1875 19.25 C-6.02185547 18.04472656 -5.85621094 16.83945312 -5.68554688 15.59765625 C-5.51474609 14.43621094 -5.34394531 13.27476562 -5.16796875 12.078125 C-5.01610107 11.03043945 -4.8642334 9.98275391 -4.70776367 8.90332031 C-3.86895132 5.46242465 -2.53495522 2.53495522 0 0 Z " fill="#28ECF8" transform="translate(388,394)"/>
<path d="M0 0 C0.66 0 1.32 0 2 0 C2.25651091 7.90053597 1.27193439 15.44108499 0.125 23.25 C-0.04902344 24.50296875 -0.22304688 25.7559375 -0.40234375 27.046875 C-0.57636719 28.2534375 -0.75039063 29.46 -0.9296875 30.703125 C-1.08679199 31.79270508 -1.24389648 32.88228516 -1.40576172 34.00488281 C-2.20915884 38.05421556 -3.05441482 41.05441482 -6 44 C-6.99 43.67 -7.98 43.34 -9 43 C-8.52763916 42.45069824 -8.05527832 41.90139648 -7.56860352 41.33544922 C-5.77536492 38.66554721 -5.37249611 36.80001144 -4.90234375 33.6328125 C-4.7415332 32.58794678 -4.58072266 31.54308105 -4.41503906 30.46655273 C-4.25745117 29.36384033 -4.09986328 28.26112793 -3.9375 27.125 C-3.76831055 26.00488525 -3.59912109 24.88477051 -3.42480469 23.73071289 C-2.93798336 20.48875484 -2.46667339 17.24491142 -2 14 C-1.76723086 12.41271584 -1.53420159 10.82546978 -1.30078125 9.23828125 C-0.85475238 6.16036573 -0.41897806 3.08169387 0 0 Z " fill="#13EAF9" transform="translate(295,394)"/>
<path d="M0 0 C0.66 0.33 1.32 0.66 2 1 C1.52385254 1.71333496 1.04770508 2.42666992 0.55712891 3.16162109 C-1.05534905 6.10089183 -1.54127646 8.11000711 -1.9140625 11.4140625 C-2.03523438 12.42210937 -2.15640625 13.43015625 -2.28125 14.46875 C-2.3946875 15.5103125 -2.508125 16.551875 -2.625 17.625 C-2.86471249 19.70080814 -3.1067932 21.77634456 -3.3515625 23.8515625 C-3.45291504 24.76760254 -3.55426758 25.68364258 -3.65869141 26.62744141 C-4 29 -4 29 -5 32 C-5.11740122 33.684571 -5.17506545 35.37388877 -5.1875 37.0625 C-5.20167969 37.94035156 -5.21585937 38.81820312 -5.23046875 39.72265625 C-5.22229436 42.19925055 -5.22229436 42.19925055 -3 44 C-6.875 43.125 -6.875 43.125 -8 42 C-8.72883381 33.99153054 -7.33449573 26.01674517 -6.125 18.125 C-5.95097656 16.91585938 -5.77695312 15.70671875 -5.59765625 14.4609375 C-4.07620003 4.31789603 -4.07620003 4.31789603 -2 1 C-1.34 0.67 -0.68 0.34 0 0 Z " fill="#1BE9F8" transform="translate(318,394)"/>
<path d="M0 0 C0.99 0 1.98 0 3 0 C0.31032341 22.82909853 0.31032341 22.82909853 -1.4375 33.875 C-1.53522705 34.57488037 -1.6329541 35.27476074 -1.73364258 35.99584961 C-2.05859375 37.9296875 -2.05859375 37.9296875 -3 41 C-5.09765625 42.4453125 -5.09765625 42.4453125 -7 43 C-6.74605469 41.82308594 -6.49210937 40.64617187 -6.23046875 39.43359375 C-3.47811072 26.35855178 -1.56710087 13.2661949 0 0 Z " fill="#F50DF9" transform="translate(310,394)"/>
<path d="M0 0 C0.99 0.33 1.98 0.66 3 1 C2.52908936 1.53214111 2.05817871 2.06428223 1.57299805 2.61254883 C-0.34785091 5.5279581 -0.68922254 7.74792845 -1.16796875 11.19921875 C-1.33876953 12.40900391 -1.50957031 13.61878906 -1.68554688 14.86523438 C-1.85119141 16.12658203 -2.01683594 17.38792969 -2.1875 18.6875 C-2.36474609 19.92951172 -2.54199219 21.17152344 -2.72460938 22.45117188 C-4.79667343 33.40711662 -4.79667343 33.40711662 -3 44 C-4.32 43.34 -5.64 42.68 -7 42 C-7.28177792 33.52614974 -6.44779829 25.43546358 -5.1875 17.0625 C-5.02185547 15.85787109 -4.85621094 14.65324219 -4.68554688 13.41210938 C-4.51474609 12.25646484 -4.34394531 11.10082031 -4.16796875 9.91015625 C-4.01610107 8.86996338 -3.8642334 7.82977051 -3.70776367 6.75805664 C-2.9623563 3.85330773 -1.95871903 2.23820093 0 0 Z " fill="#1AE5F6" transform="translate(73,394)"/>
<path d="M0 0 C1.32 0.66 2.64 1.32 4 2 C4.24073392 9.7366902 3.32648419 17.10430976 2.1875 24.75 C2.02185547 25.95527344 1.85621094 27.16054688 1.68554688 28.40234375 C1.51474609 29.56378906 1.34394531 30.72523438 1.16796875 31.921875 C1.01610107 32.96956055 0.8642334 34.01724609 0.70776367 35.09667969 C-0.06067868 38.24891028 -1.03499447 40.41961166 -3 43 C-3.99 43 -4.98 43 -6 43 C-5.52908936 42.31083496 -5.05817871 41.62166992 -4.57299805 40.91162109 C-2.80560353 37.64017191 -2.32010285 35.09130006 -1.83203125 31.4140625 C-1.66123047 30.15335937 -1.49042969 28.89265625 -1.31445312 27.59375 C-1.19082397 26.61535156 -1.19082397 26.61535156 -1.06469727 25.6171875 C-0.81394547 23.6364182 -0.54471762 21.6580167 -0.27539062 19.6796875 C1.65505901 9.65097922 1.65505901 9.65097922 0 0 Z " fill="#F509F9" transform="translate(288,394)"/>
<path d="M0 0 C0.33 0 0.66 0 1 0 C0.36324974 8.66154805 -1.24243089 17.04393422 -2.95629883 25.54321289 C-3.44100302 27.95492979 -3.91323165 30.36888079 -4.38476562 32.78320312 C-4.69196218 34.32306571 -4.99987869 35.86278488 -5.30859375 37.40234375 C-5.44825058 38.12107162 -5.58790741 38.8397995 -5.73179626 39.58030701 C-6.42029027 42.94419628 -7.06805077 45.10207616 -9 48 C-6.91616766 13.83233533 -6.91616766 13.83233533 0 0 Z " fill="#EFD7F6" transform="translate(283,106)"/>
<path d="M0 0 C8.58 0 17.16 0 26 0 C26 0.33 26 0.66 26 1 C23.03 1 20.06 1 17 1 C17 1.66 17 2.32 17 3 C19.97 3 22.94 3 26 3 C26 3.33 26 3.66 26 4 C17.09 4 8.18 4 -1 4 C-0.67 2.68 -0.34 1.36 0 0 Z " fill="#A961E0" transform="translate(206,406)"/>
<path d="M0 0 C0.66 0 1.32 0 2 0 C1.66236843 9.2848683 0.50445655 18.43548523 -0.8125 27.625 C-0.96557617 28.77532715 -1.11865234 29.9256543 -1.27636719 31.11083984 C-1.43911133 32.20090332 -1.60185547 33.2909668 -1.76953125 34.4140625 C-1.90979736 35.3932666 -2.05006348 36.3724707 -2.19458008 37.38134766 C-3.15446057 40.50219585 -4.55004433 41.89683886 -7 44 C-7.66 43.67 -8.32 43.34 -9 43 C-8.29931396 42.46656982 -8.29931396 42.46656982 -7.58447266 41.92236328 C-5.32596939 39.18223158 -5.18259577 36.73603267 -4.6484375 33.2421875 C-4.54407379 32.57970001 -4.43971008 31.91721252 -4.33218384 31.23464966 C-4.00158723 29.11636176 -3.68831553 26.99590514 -3.375 24.875 C-3.15733427 23.47118562 -2.938595 22.06753725 -2.71875 20.6640625 C-1.65338409 13.79114576 -0.69362653 6.92085133 0 0 Z " fill="#17F3FB" transform="translate(172,394)"/>
<path d="M0 0 C5.28 0 10.56 0 16 0 C15.67 1.32 15.34 2.64 15 4 C4.44 4 -6.12 4 -17 4 C-17 3.67 -17 3.34 -17 3 C-11.06 2.67 -5.12 2.34 1 2 C0.67 1.34 0.34 0.68 0 0 Z " fill="#7551CB" transform="translate(207,422)"/>
<path d="M0 0 C6.27 0 12.54 0 19 0 C18.67 1.32 18.34 2.64 18 4 C11.73 4 5.46 4 -1 4 C-0.34 3.67 0.32 3.34 1 3 C0.67 2.01 0.34 1.02 0 0 Z " fill="#B1B9EE" transform="translate(329,406)"/>
<path d="M0 0 C0.99 0 1.98 0 3 0 C2.61905993 6.93573653 1.84474868 13.77917258 0.6875 20.625 C0.58203857 21.32367188 0.47657715 22.02234375 0.36791992 22.7421875 C0.01171875 24.7265625 0.01171875 24.7265625 -1 28 C-3.06323242 29.20458984 -3.06323242 29.20458984 -5 30 C-4.88406494 29.44650879 -4.76812988 28.89301758 -4.64868164 28.32275391 C-4.11462884 25.75791263 -3.58854068 23.19149603 -3.0625 20.625 C-2.88009766 19.75488281 -2.69769531 18.88476562 -2.50976562 17.98828125 C-1.2915775 12.00808498 -0.4903951 6.08286407 0 0 Z " fill="#F914FA" transform="translate(256,407)"/>
<path d="M0 0 C0.66 0 1.32 0 2 0 C1.48315573 7.05900457 0.80507443 14.09366809 0 21.125 C-0.1244751 22.24442993 -0.1244751 22.24442993 -0.25146484 23.38647461 C-0.88133878 28.76267755 -0.88133878 28.76267755 -2 31 C-2.66 31 -3.32 31 -4 31 C-3.71840827 27.51994273 -3.42285673 24.04119988 -3.125 20.5625 C-3.00705078 19.10166992 -3.00705078 19.10166992 -2.88671875 17.61132812 C-2.36237101 11.58132906 -1.44684238 5.87855707 0 0 Z " fill="#1CF7FC" transform="translate(274,407)"/>
<path d="M0 0 C-2.42228642 2.42228642 -3.87239084 2.61444864 -7.1875 3.375 C-12.23169161 4.57016083 -17.24466439 5.84103545 -22.25 7.1875 C-23.25196411 7.45602783 -23.25196411 7.45602783 -24.27416992 7.72998047 C-25.8496797 8.15245203 -27.42487568 8.57609359 -29 9 C-29 8.34 -29 7.68 -29 7 C-29.66 6.67 -30.32 6.34 -31 6 C-27.14932582 4.98621532 -23.29397377 3.99147328 -19.4375 3 C-18.35146484 2.71382812 -17.26542969 2.42765625 -16.14648438 2.1328125 C-10.62684204 0.72354212 -5.70198744 -0.39267632 0 0 Z " fill="#911CB3" transform="translate(193,38)"/>
<path d="M0 0 C0.99 0.33 1.98 0.66 3 1 C2.28612482 19.68383669 2.28612482 19.68383669 -1 25 C-3.10546875 26.23046875 -3.10546875 26.23046875 -5 27 C-4.52949219 25.88625 -4.05898438 24.7725 -3.57421875 23.625 C-1.76562742 18.80208978 -1.23996355 14.10603249 -0.8125 9 C-0.73064453 8.12988281 -0.64878906 7.25976562 -0.56445312 6.36328125 C-0.36641309 4.24308794 -0.18179444 2.12164801 0 0 Z " fill="#F61AF8" transform="translate(361,395)"/>
<path d="M0 0 C0.66 0.33 1.32 0.66 2 1 C2.0825 2.19625 2.165 3.3925 2.25 4.625 C2.73345162 9.87661166 5.39246581 12.31570977 9 16 C5.7 16 2.4 16 -1 16 C-1.08441199 10.51322045 -0.92037377 5.40719589 0 0 Z " fill="#F710F9" transform="translate(150,377)"/>
<path d="M0 0 C0.66 0.33 1.32 0.66 2 1 C1.01 2.485 1.01 2.485 0 4 C-0.50051047 6.46200216 -0.50051047 6.46200216 -0.74609375 9.21875 C-0.86146484 10.23324219 -0.97683594 11.24773437 -1.09570312 12.29296875 C-1.32352421 14.43058143 -1.54748474 16.56860909 -1.76757812 18.70703125 C-1.88423828 19.72152344 -2.00089844 20.73601562 -2.12109375 21.78125 C-2.2183374 22.71001953 -2.31558105 23.63878906 -2.41577148 24.59570312 C-3.06865324 27.28253119 -3.88266681 28.28009157 -6 30 C-5.52571059 23.29754176 -4.91176507 16.61034291 -4.125 9.9375 C-3.98320312 8.68839844 -3.84140625 7.43929688 -3.6953125 6.15234375 C-3.00064917 3.00294314 -2.53618354 1.89174346 0 0 Z " fill="#F207F6" transform="translate(437,376)"/>
<path d="M0 0 C1.98 0.99 1.98 0.99 4 2 C3.85930804 4.12534659 3.71229079 6.25027529 3.5625 8.375 C3.48128906 9.55835938 3.40007812 10.74171875 3.31640625 11.9609375 C3 15 3 15 2 17 C7.28 17 12.56 17 18 17 C18 17.33 18 17.66 18 18 C12.06 18 6.12 18 0 18 C0 12.06 0 6.12 0 0 Z " fill="#DF3FF4" transform="translate(259,376)"/>
<path d="M0 0 C0.66 0.33 1.32 0.66 2 1 C1.29423828 2.05767578 1.29423828 2.05767578 0.57421875 3.13671875 C-3.11679427 9.85014938 -3.41922223 18.45399981 -3 26 C-2.67 26.66 -2.34 27.32 -2 28 C-3.32 27.34 -4.64 26.68 -6 26 C-4.74765074 4.97371501 -4.74765074 4.97371501 -1.4296875 1.2265625 C-0.95789063 0.82179688 -0.48609375 0.41703125 0 0 Z " fill="#12EBF9" transform="translate(195,394)"/>
<path d="M0 0 C0.99 0.33 1.98 0.66 3 1 C2.34 1.66 1.68 2.32 1 3 C0.3859361 5.20271988 0.3859361 5.20271988 0 7.75390625 C-0.165 8.69041016 -0.33 9.62691406 -0.5 10.59179688 C-0.8339727 12.57606437 -1.16730363 14.56043998 -1.5 16.54492188 C-1.665 17.48013672 -1.83 18.41535156 -2 19.37890625 C-2.2165625 20.67163452 -2.2165625 20.67163452 -2.4375 21.99047852 C-2.623125 22.65362061 -2.80875 23.3167627 -3 24 C-3.66 24.33 -4.32 24.66 -5 25 C-3.87288136 5.80932203 -3.87288136 5.80932203 0 0 Z " fill="#1EF3FB" transform="translate(370,376)"/>
<path d="M0 0 C0.66 0.33 1.32 0.66 2 1 C1.88496731 3.5216376 1.75825223 6.0418119 1.625 8.5625 C1.5940625 9.26697266 1.563125 9.97144531 1.53125 10.69726562 C1.27047442 15.41295741 0.45341877 19.50385496 -1 24 C-1.66 24 -2.32 24 -3 24 C-2.68860949 21.31236733 -2.37591843 18.62489631 -2.0625 15.9375 C-1.97548828 15.18533203 -1.88847656 14.43316406 -1.79882812 13.65820312 C-1.26536361 9.09411781 -0.67013702 4.54606466 0 0 Z " fill="#FAEBFF" transform="translate(381,404)"/>
<path d="M0 0 C1.32 0.66 2.64 1.32 4 2 C4.27722188 10.31665653 4.19069772 19.5870431 0 27 C-0.66 26.67 -1.32 26.34 -2 26 C-1.67515625 24.78376953 -1.67515625 24.78376953 -1.34375 23.54296875 C1.93516431 11.71774877 1.93516431 11.71774877 0 0 Z " fill="#F50DF8" transform="translate(234,410)"/>
<path d="M0 0 C0.66 0.33 1.32 0.66 2 1 C2.13292199 8.70947565 1.61205763 16.3164908 1 24 C0.01 23.67 -0.98 23.34 -2 23 C-2.2700558 15.1683819 -1.23107719 7.72720775 0 0 Z " fill="#2AFAFD" transform="translate(130,413)"/>
<path d="M0 0 C0.66 0.33 1.32 0.66 2 1 C1.29423828 2.24136719 1.29423828 2.24136719 0.57421875 3.5078125 C-1.13395388 7.29715824 -1.75615847 10.79110591 -2.1875 14.875 C-2.3102832 15.90753906 -2.3102832 15.90753906 -2.43554688 16.9609375 C-2.63370738 18.63947357 -2.81827787 20.31960481 -3 22 C-5 20 -5 20 -5.08203125 16.91796875 C-4.99308594 15.68691406 -4.90414063 14.45585937 -4.8125 13.1875 C-4.73644531 11.96417969 -4.66039062 10.74085938 -4.58203125 9.48046875 C-3.93803529 5.62945935 -2.79009168 2.79009168 0 0 Z " fill="#16F4FB" transform="translate(388,394)"/>
<path d="M0 0 C0.99 0.33 1.98 0.66 3 1 C2.34 6.61 1.68 12.22 1 18 C0.01 18 -0.98 18 -2 18 C-1.34 12.06 -0.68 6.12 0 0 Z " fill="#F717F9" transform="translate(398,407)"/>
<path d="M0 0 C0.66 0 1.32 0 2 0 C1.03644647 12.66970387 1.03644647 12.66970387 0 18 C-0.66 18 -1.32 18 -2 18 C-2.20190089 11.64012196 -1.6277833 6.14778871 0 0 Z " fill="#F208F6" transform="translate(84,407)"/>
<path d="M0 0 C0.66 0 1.32 0 2 0 C2.24091535 7.2274605 1.34495828 13.90294338 0 21 C-2 19 -2 19 -2.01171875 16.42578125 C-1.90472656 15.39839844 -1.79773438 14.37101562 -1.6875 13.3125 C-1.57921875 12.24128906 -1.4709375 11.17007812 -1.359375 10.06640625 C-0.96461478 6.69807174 -0.53282255 3.34917033 0 0 Z " fill="#FC14FD" transform="translate(383,376)"/>
<path d="M0 0 C1.98 0.99 1.98 0.99 4 2 C3.50130596 7.36891879 2.97772468 12.69235173 2 18 C1.34 17.67 0.68 17.34 0 17 C0 11.39 0 5.78 0 0 Z " fill="#14F7FC" transform="translate(244,376)"/>
<path d="M0 0 C0.66 0 1.32 0 2 0 C2.19548629 6.15781799 2.12086994 12.1348782 0 18 C-0.66 18.33 -1.32 18.66 -2 19 C-1.50873071 12.63440427 -1.00344253 6.30735307 0 0 Z " fill="#F207F6" transform="translate(380,395)"/>
<path d="M0 0 C0.33 0 0.66 0 1 0 C0.98839844 1.27617187 0.97679688 2.55234375 0.96484375 3.8671875 C0.95546583 5.53645687 0.94636563 7.20572783 0.9375 8.875 C0.92912109 9.71675781 0.92074219 10.55851562 0.91210938 11.42578125 C0.90727539 12.63427734 0.90727539 12.63427734 0.90234375 13.8671875 C0.89710693 14.61081543 0.89187012 15.35444336 0.88647461 16.12060547 C0.88213364 18.09132568 0.88213364 18.09132568 2 20 C0.68 19.34 -0.64 18.68 -2 18 C-2.20852314 11.59370576 -2.1583195 6.07027358 0 0 Z " fill="#12F8FC" transform="translate(68,418)"/>
<path d="M0 0 C0.66 0 1.32 0 2 0 C2.20190089 6.35987804 1.6277833 11.85221129 0 18 C-0.66 18 -1.32 18 -2 18 C-1.34 12.06 -0.68 6.12 0 0 Z " fill="#F409F7" transform="translate(146,407)"/>
<path d="M0 0 C0.99 0.33 1.98 0.66 3 1 C2.34 1.66 1.68 2.32 1 3 C0.3162387 5.88717605 0.3162387 5.88717605 -0.125 9.125 C-0.29257812 10.22070312 -0.46015625 11.31640625 -0.6328125 12.4453125 C-0.75398438 13.28835938 -0.87515625 14.13140625 -1 15 C-1.99 15 -2.98 15 -4 15 C-3.40546697 4.44191344 -3.40546697 4.44191344 0 0 Z " fill="#22D7F4" transform="translate(300,376)"/>
<path d="M0 0 C1.98 0.99 1.98 0.99 4 2 C3.03644647 12.55808656 3.03644647 12.55808656 2 17 C1.34 17 0.68 17 0 17 C0 11.39 0 5.78 0 0 Z " fill="#14EDF8" transform="translate(134,376)"/>
<path d="M0 0 C0.33 0 0.66 0 1 0 C0.91299202 2.43922361 0.80613998 4.87478414 0.6875 7.3125 C0.66494141 8.00279297 0.64238281 8.69308594 0.61914062 9.40429688 C0.3453392 14.55674183 0.3453392 14.55674183 -1.54296875 16.98046875 C-2.02378906 17.31691406 -2.50460937 17.65335937 -3 18 C-2.22095672 5.33029613 -2.22095672 5.33029613 0 0 Z " fill="#BE76E8" transform="translate(313,399)"/>
<path d="M0 0 C0.99 0.33 1.98 0.66 3 1 C2.37609375 1.34675781 1.7521875 1.69351562 1.109375 2.05078125 C-1.85901182 4.79379056 -2.02899106 7.25800128 -2.75 11.1875 C-2.99234375 12.45980469 -3.2346875 13.73210937 -3.484375 15.04296875 C-3.65453125 16.01878906 -3.8246875 16.99460937 -4 18 C-4.66 18 -5.32 18 -6 18 C-5.78943471 6.17005924 -5.78943471 6.17005924 -2.4375 2.25 C-1.633125 1.5075 -0.82875 0.765 0 0 Z " fill="#19F6FC" transform="translate(424,376)"/>
<path d="M0 0 C0.33 0 0.66 0 1 0 C0.85936865 2.29199177 0.71234057 4.58359186 0.5625 6.875 C0.48128906 8.15117187 0.40007812 9.42734375 0.31640625 10.7421875 C0 14 0 14 -1 16 C-1.66 16 -2.32 16 -3 16 C-2.88487847 14.27014758 -2.75744323 12.54111249 -2.625 10.8125 C-2.55539062 9.84957031 -2.48578125 8.88664062 -2.4140625 7.89453125 C-1.99784147 4.98491062 -1.20125904 2.67109226 0 0 Z " fill="#13E1F4" transform="translate(273,422)"/>
<path d="M0 0 C4.29 0 8.58 0 13 0 C13 0.99 13 1.98 13 3 C11.39667209 3.08121924 9.79215974 3.13929134 8.1875 3.1875 C7.29417969 3.22230469 6.40085938 3.25710938 5.48046875 3.29296875 C3 3 3 3 0 0 Z " fill="#BE67E3" transform="translate(207,422)"/>
<path d="M0 0 C0.33 0 0.66 0 1 0 C0.9131724 2.12577907 0.8050049 4.25069581 0.6875 6.375 C0.62949219 7.55835938 0.57148438 8.74171875 0.51171875 9.9609375 C0.34285156 10.96382813 0.17398437 11.96671875 0 13 C-0.99 13.66 -1.98 14.32 -3 15 C-2.88623383 12.87436897 -2.75864369 10.7494739 -2.625 8.625 C-2.55539062 7.44164062 -2.48578125 6.25828125 -2.4140625 5.0390625 C-2 2 -2 2 0 0 Z " fill="#BE61E1" transform="translate(294,395)"/>
<path d="M0 0 C0.66 0 1.32 0 2 0 C1.67 4.62 1.34 9.24 1 14 C0.01 14.33 -0.98 14.66 -2 15 C-1.03644647 4.44191344 -1.03644647 4.44191344 0 0 Z " fill="#F108F6" transform="translate(313,376)"/>
<path d="M0 0 C-2.51884651 2.51884651 -4.43644242 2.8257588 -7.875 3.6875 C-8.92429688 3.95949219 -9.97359375 4.23148438 -11.0546875 4.51171875 C-13.85166838 4.97540921 -15.372192 4.94575698 -18 4 C-11.58105358 1.16085062 -7.13663935 -0.13724306 0 0 Z " fill="#8E13B1" transform="translate(193,38)"/>
<path d="M0 0 C0.66 0 1.32 0 2 0 C2.10251672 5.12583611 2.03590199 9.94997778 1 15 C0.01 15.33 -0.98 15.66 -2 16 C-1.34 10.72 -0.68 5.44 0 0 Z " fill="#F609FA" transform="translate(187,394)"/>
<path d="M0 0 C0.33 0 0.66 0 1 0 C0.67 4.62 0.34 9.24 0 14 C-0.99 14.33 -1.98 14.66 -3 15 C-2.69257097 12.68682039 -2.37892298 10.37446648 -2.0625 8.0625 C-1.88847656 6.77472656 -1.71445312 5.48695313 -1.53515625 4.16015625 C-1 1 -1 1 0 0 Z " fill="#14DFF4" transform="translate(366,400)"/>
<path d="M0 0 C0.99 0.33 1.98 0.66 3 1 C2.34 1 1.68 1 1 1 C0.01 5.62 -0.98 10.24 -2 15 C-2.66 15 -3.32 15 -4 15 C-3.40546697 4.44191344 -3.40546697 4.44191344 0 0 Z " fill="#21DDF6" transform="translate(177,376)"/>
<path d="M0 0 C1.32 0 2.64 0 4 0 C3.14285714 8.57142857 3.14285714 8.57142857 1 12 C0.34 12 -0.32 12 -1 12 C-0.9278125 11.21753906 -0.855625 10.43507813 -0.78125 9.62890625 C-0.6884375 8.61699219 -0.595625 7.60507812 -0.5 6.5625 C-0.4071875 5.55316406 -0.314375 4.54382813 -0.21875 3.50390625 C-0.05845072 1.75417336 -0.05845072 1.75417336 0 0 Z " fill="#EF19F4" transform="translate(112,425)"/>
<path d="M0 0 C1.16959987 0.97566112 2.33561177 1.955625 3.5 2.9375 C4.1496875 3.48277344 4.799375 4.02804687 5.46875 4.58984375 C5.9740625 5.05519531 6.479375 5.52054687 7 6 C7 6.33 7 6.66 7 7 C4.36 7 1.72 7 -1 7 C-0.67 4.69 -0.34 2.38 0 0 Z " fill="#FAF3FB" transform="translate(152,386)"/>
<path d="M0 0 C0.66 0 1.32 0 2 0 C1.34 4.62 0.68 9.24 0 14 C-0.66 14 -1.32 14 -2 14 C-1.85866501 12.22880197 -1.71176792 10.45804713 -1.5625 8.6875 C-1.48128906 7.70136719 -1.40007812 6.71523438 -1.31640625 5.69921875 C-1 3 -1 3 0 0 Z " fill="#F302F7" transform="translate(190,376)"/>
<path d="M0 0 C0.66 0 1.32 0 2 0 C1.96519531 1.15628906 1.96519531 1.15628906 1.9296875 2.3359375 C1.91164062 3.33882813 1.89359375 4.34171875 1.875 5.375 C1.85179687 6.37273437 1.82859375 7.37046875 1.8046875 8.3984375 C1.72783152 11.16262173 1.72783152 11.16262173 4 13 C0.125 12.125 0.125 12.125 -1 11 C-1.09823937 9.33570949 -1.12973631 7.66718069 -1.125 6 C-1.12757813 5.0925 -1.13015625 4.185 -1.1328125 3.25 C-1 1 -1 1 0 0 Z " fill="#24F7FC" transform="translate(188,425)"/>
<path d="M0 0 C0.66 0 1.32 0 2 0 C2.30769231 8 2.30769231 8 0 11 C-2.078125 11.6015625 -2.078125 11.6015625 -4 12 C-3.79503906 11.46890625 -3.59007813 10.9378125 -3.37890625 10.390625 C-3.10949219 9.68421875 -2.84007813 8.9778125 -2.5625 8.25 C-2.29566406 7.55390625 -2.02882813 6.8578125 -1.75390625 6.140625 C-1.03853307 4.10940997 -0.48634348 2.0964709 0 0 Z " fill="#F515F8" transform="translate(118,394)"/>
<path d="M0 0 C0.66 0 1.32 0 2 0 C1.28571429 8.57142857 1.28571429 8.57142857 -2 12 C-2.66 11.67 -3.32 11.34 -4 11 C-3.34 10.01 -2.68 9.02 -2 8 C-1.33841957 5.95415921 -1.33841957 5.95415921 -0.875 3.8125 C-0.58625 2.554375 -0.2975 1.29625 0 0 Z " fill="#F91EFB" transform="translate(164,425)"/>
<path d="M0 0 C0.90105469 0.02707031 1.80210937 0.05414063 2.73046875 0.08203125 C3.76107422 0.13423828 3.76107422 0.13423828 4.8125 0.1875 C4.8125 0.5175 4.8125 0.8475 4.8125 1.1875 C3.678125 1.31125 2.54375 1.435 1.375 1.5625 C-0.3884375 1.871875 -0.3884375 1.871875 -2.1875 2.1875 C-2.5175 2.8475 -2.8475 3.5075 -3.1875 4.1875 C-4.1775 4.1875 -5.1675 4.1875 -6.1875 4.1875 C-6.5175 5.5075 -6.8475 6.8275 -7.1875 8.1875 C-7.875 5.875 -7.875 5.875 -8.1875 3.1875 C-5.8826672 -0.11401726 -3.8664288 -0.15064008 0 0 Z " fill="#7348C7" transform="translate(304.1875,389.8125)"/>
<path d="M0 0 C0.33 0 0.66 0 1 0 C1.21192221 5.19209404 0.5912689 9.126739 -1 14 C-1.33 14 -1.66 14 -2 14 C-2.3690205 4.58997722 -2.3690205 4.58997722 0 0 Z " fill="#FAF2FC" transform="translate(279,124)"/>
<path d="M0 0 C0.33 0 0.66 0 1 0 C1 3.96 1 7.92 1 12 C0.01 11.67 -0.98 11.34 -2 11 C-2.05399736 9.54207116 -2.09279177 8.08357288 -2.125 6.625 C-2.15980469 5.40683594 -2.15980469 5.40683594 -2.1953125 4.1640625 C-2 2 -2 2 0 0 Z " fill="#1AF8FC" transform="translate(130,425)"/>
<path d="M0 0 C1.43655854 -0.08131463 2.8744483 -0.13933559 4.3125 -0.1875 C5.51326172 -0.23970703 5.51326172 -0.23970703 6.73828125 -0.29296875 C9.47851584 0.06198392 10.29171079 0.89366282 12 3 C3.42857143 3.28571429 3.42857143 3.28571429 0 1 C0 0.67 0 0.34 0 0 Z " fill="#8616B2" transform="translate(198,422)"/>
<path d="M0 0 C1.34567923 2.69135846 0.77224621 4.13876894 0.1875 7.0625 C0.01605469 7.96097656 -0.15539062 8.85945313 -0.33203125 9.78515625 C-0.55246094 10.51605469 -0.77289063 11.24695313 -1 12 C-1.99 12.495 -1.99 12.495 -3 13 C-2.88610125 11.20759337 -2.75852313 9.41605165 -2.625 7.625 C-2.55539062 6.62726563 -2.48578125 5.62953125 -2.4140625 4.6015625 C-2 2 -2 2 0 0 Z " fill="#F6EDFE" transform="translate(311,416)"/>
<path d="M0 0 C0.66 0 1.32 0 2 0 C1.91253716 1.43861294 1.80434652 2.87597508 1.6875 4.3125 C1.62949219 5.11300781 1.57148438 5.91351563 1.51171875 6.73828125 C0.91793306 9.36272334 0.04219706 10.30820672 -2 12 C-2.66 11.67 -3.32 11.34 -4 11 C-3.34 10.34 -2.68 9.68 -2 9 C-1.32348793 6.80295489 -1.32348793 6.80295489 -0.875 4.375 C-0.70742187 3.55773437 -0.53984375 2.74046875 -0.3671875 1.8984375 C-0.24601563 1.27195312 -0.12484375 0.64546875 0 0 Z " fill="#F415F7" transform="translate(239,394)"/>
<path d="M0 0 C0.99 0.33 1.98 0.66 3 1 C2.01 1.495 2.01 1.495 1 2 C0.08968728 4.34386809 0.08968728 4.34386809 -0.625 7.0625 C-0.88539062 7.98160156 -1.14578125 8.90070313 -1.4140625 9.84765625 C-1.60742188 10.55792969 -1.80078125 11.26820313 -2 12 C-2.66 11.67 -3.32 11.34 -4 11 C-3.38461538 3.49230769 -3.38461538 3.49230769 -1.4375 1 C-0.963125 0.67 -0.48875 0.34 0 0 Z " fill="#1EEFF9" transform="translate(123,394)"/>
<path d="M0 0 C0.66 0 1.32 0 2 0 C1.28571429 8.57142857 1.28571429 8.57142857 -2 12 C-2.66 11.67 -3.32 11.34 -4 11 C-3.34 10.01 -2.68 9.02 -2 8 C-1.33841957 5.95415921 -1.33841957 5.95415921 -0.875 3.8125 C-0.58625 2.554375 -0.2975 1.29625 0 0 Z " fill="#F407F7" transform="translate(168,394)"/>
<path d="M0 0 C0.99 0 1.98 0 3 0 C2.67 3.96 2.34 7.92 2 12 C-0.35333796 7.29332409 -0.17102038 5.1306114 0 0 Z " fill="#F629F9" transform="translate(256,407)"/>
<path d="M0 0 C0.33 0 0.66 0 1 0 C1.36630156 3.93774177 1.30233203 5.56539771 -1 8.875 C-1.66 9.57625 -2.32 10.2775 -3 11 C-3.66 10.67 -4.32 10.34 -5 10 C-3.35 6.7 -1.7 3.4 0 0 Z " fill="#19EDF9" transform="translate(362,427)"/>
<path d="M0 0 C0.66 0 1.32 0 2 0 C1.57343918 3.09415757 1.07001562 6.05880129 0 9 C-2.625 10.5625 -2.625 10.5625 -5 11 C-4.54625 10.484375 -4.0925 9.96875 -3.625 9.4375 C-1.61799617 6.42699426 -0.87268191 3.49072763 0 0 Z " fill="#27EDF9" transform="translate(168,427)"/>
<path d="M0 0 C0.66 0.33 1.32 0.66 2 1 C1.2884375 2.0828125 1.2884375 2.0828125 0.5625 3.1875 C-0.94152903 5.89475226 -1.56599182 7.96194275 -2 11 C-2.66 11 -3.32 11 -4 11 C-4.17754126 7.09409237 -4.20731737 4.31097606 -2 1 C-1.34 0.67 -0.68 0.34 0 0 Z " fill="#15E9F9" transform="translate(318,394)"/>
<path d="M0 0 C2.13586678 3.20380017 2.23132175 4.01939967 2.125 7.6875 C2.10695312 8.49574219 2.08890625 9.30398438 2.0703125 10.13671875 C2.04710937 10.75160156 2.02390625 11.36648438 2 12 C1.01 11.67 0.02 11.34 -1 11 C-0.67 7.37 -0.34 3.74 0 0 Z " fill="#FCE5FF" transform="translate(185,422)"/>
<path d="M0 0 C2 3 2 3 1.75 5.0625 C1 7 1 7 -1 9 C-1.99 8.67 -2.98 8.34 -4 8 C-3.2884375 7.13375 -3.2884375 7.13375 -2.5625 6.25 C-1.0515133 4.07417916 -0.45963849 2.57397552 0 0 Z " fill="#3DE3F7" transform="translate(290,429)"/>
<path d="M0 0 C0.66 0.33 1.32 0.66 2 1 C2.36923077 6.41538462 2.36923077 6.41538462 0.5 9.375 C0.005 9.91125 -0.49 10.4475 -1 11 C-1.66 10.67 -2.32 10.34 -3 10 C-2.690625 9.46375 -2.38125 8.9275 -2.0625 8.375 C-0.82172561 5.6015043 -0.4090325 2.99957163 0 0 Z " fill="#D668EB" transform="translate(288,426)"/>
<path d="M0 0 C0.33 0 0.66 0 1 0 C1 2.64 1 5.28 1 8 C0.01 8.33 -0.98 8.66 -2 9 C-2.25 3.375 -2.25 3.375 0 0 Z " fill="#21E9F7" transform="translate(313,415)"/>
<path d="M0 0 C2.29013653 3.4352048 2.17842973 4.985331 2 9 C1.01 9.33 0.02 9.66 -1 10 C-0.67 6.7 -0.34 3.4 0 0 Z " fill="#FCD0FF" transform="translate(379,418)"/>
<path d="M0 0 C1.98 0.99 1.98 0.99 4 2 C4 3.65 4 5.3 4 7 C3.01 7.33 2.02 7.66 1 8 C0.67 5.36 0.34 2.72 0 0 Z " fill="#24E4F5" transform="translate(244,376)"/>
<path d="M0 0 C0.33 0.66 0.66 1.32 1 2 C1.66 2.33 2.32 2.66 3 3 C1.68 5.64 0.36 8.28 -1 11 C-2.13757948 6.44968209 -1.4283779 4.36915594 0 0 Z " fill="#EFD8F5" transform="translate(290,112)"/>
<path d="M0 0 C0.66 0.33 1.32 0.66 2 1 C-0.31 3.31 -2.62 5.62 -5 8 C-5.66 7.34 -6.32 6.68 -7 6 C-4.69 4.02 -2.38 2.04 0 0 Z " fill="#971FB9" transform="translate(208,165)"/>
<path d="M0 0 C0.99 0 1.98 0 3 0 C2.67 1.32 2.34 2.64 2 4 C-1.3 4 -4.6 4 -8 4 C-8 3.67 -8 3.34 -8 3 C-5.36 3 -2.72 3 0 3 C0 2.01 0 1.02 0 0 Z " fill="#4B89DC" transform="translate(220,422)"/>
<path d="M0 0 C0.66 0.33 1.32 0.66 2 1 C2 3.31 2 5.62 2 8 C1.01 7.67 0.02 7.34 -1 7 C-0.67 4.69 -0.34 2.38 0 0 Z " fill="#852CBB" transform="translate(170,395)"/>
<path d="M0 0 C0.99 0.33 1.98 0.66 3 1 C3.33 3.64 3.66 6.28 4 9 C1.49701566 6.06171403 0.53069061 3.82097239 0 0 Z " fill="#EFDBF4" transform="translate(208,114)"/>
<path d="M0 0 C0.33 0.66 0.66 1.32 1 2 C-0.98 2.33 -2.96 2.66 -5 3 C-5 2.34 -5 1.68 -5 1 C-5.66 0.67 -6.32 0.34 -7 0 C-3.98968256 -0.93423645 -3.13349732 -1.04449911 0 0 Z " fill="#9D2FBC" transform="translate(176,42)"/>
</svg>
